<?xml version="1.0" encoding="UTF-8" standalone="no"?>
<!-- Created with Inkscape (http://www.inkscape.org/) -->

<svg
   xmlns:dc="http://purl.org/dc/elements/1.1/"
   xmlns:cc="http://creativecommons.org/ns#"
   xmlns:rdf="http://www.w3.org/1999/02/22-rdf-syntax-ns#"
   xmlns:svg="http://www.w3.org/2000/svg"
   xmlns="http://www.w3.org/2000/svg"
   xmlns:sodipodi="http://sodipodi.sourceforge.net/DTD/sodipodi-0.dtd"
   xmlns:inkscape="http://www.inkscape.org/namespaces/inkscape"
   width="210mm"
   height="297mm"
   id="svg2"
   version="1.1"
   inkscape:version="0.48.2 r9819"
   sodipodi:docname="Neues Dokument 1">
  <defs
     id="defs4" />
  <sodipodi:namedview
     id="base"
     pagecolor="#ffffff"
     bordercolor="#666666"
     borderopacity="1.0"
     inkscape:pageopacity="0.0"
     inkscape:pageshadow="2"
     inkscape:zoom="1.34"
     inkscape:cx="354.83913"
     inkscape:cy="442.10976"
     inkscape:document-units="px"
     inkscape:current-layer="layer1"
     showgrid="false"
     inkscape:window-width="1366"
     inkscape:window-height="705"
     inkscape:window-x="-8"
     inkscape:window-y="-8"
     inkscape:window-maximized="1" />
  <metadata
     id="metadata7">
    <rdf:RDF>
      <cc:Work
         rdf:about="">
        <dc:format>image/svg+xml</dc:format>
        <dc:type
           rdf:resource="http://purl.org/dc/dcmitype/StillImage" />
        <dc:title></dc:title>
      </cc:Work>
    </rdf:RDF>
  </metadata>
  <g
     inkscape:label="Ebene 1"
     inkscape:groupmode="layer"
     id="layer1">
    <path
       sodipodi:type="arc"
       style="fill:none;fill-rule:evenodd;stroke:#000000;stroke-width:1px;stroke-linecap:butt;stroke-linejoin:miter;stroke-opacity:1"
       id="path2985"
       sodipodi:cx="367.59259"
       sodipodi:cy="590.32513"
       sodipodi:rx="169.44444"
       sodipodi:ry="169.44444"
       d="m 537.03703,590.32513 a 169.44444,169.44444 0 1 1 -338.88888,0 169.44444,169.44444 0 1 1 338.88888,0 z" />
    <path
       sodipodi:type="arc"
       style="fill:none"
       id="path3759"
       sodipodi:cx="351.85184"
       sodipodi:cy="667.63995"
       sodipodi:rx="58.333332"
       sodipodi:ry="25.462963"
       d="m 410.18517,667.63995 a 58.333332,25.462963 0 1 1 -116.66666,0 58.333332,25.462963 0 1 1 116.66666,0 z" />
    <path
       style="fill:#000000;fill-opacity:1;stroke:#000000;stroke-opacity:1"
       id="path3771"
       d="m 344.74572,651.11019 c 1.33877,-1.14036 2.70643,-2.2458 4.09231,-3.32803 1.2287,-1.01716 2.58425,-1.90192 3.68601,-3.06051 0.83498,-1.03664 1.59115,-2.14832 2.26724,-3.29633 0.5987,-1.48993 1.4634,-2.84371 2.12988,-4.30096 0.43603,-1.33914 0.95386,-2.65891 1.29033,-4.02892 0.26938,-1.29193 0.29174,-2.61606 0.31433,-3.93036 0.11551,-1.4092 -0.20003,-2.78204 -0.41114,-4.165 0.008,-1.34009 -0.80464,-2.43099 -1.11842,-3.68395 0.10551,-1.75696 2.46413,-2.27344 3.98443,-2.39401 1.6545,0.0332 3.27002,-0.11314 4.89895,-0.37994 1.34991,-0.22916 2.71804,-0.29393 4.08419,-0.33273 1.37531,0.0412 1.86072,1.05076 2.3349,2.17755 0.47904,1.44445 0.81899,2.92212 1.31665,4.35981 0.43985,1.32485 0.91064,2.63938 1.37913,3.95491 0.46702,1.57783 1.03429,3.16155 1.7777,4.63146 0.83424,1.47139 1.42252,3.06019 2.28284,4.51522 0.80399,1.01323 1.60924,2.0679 2.69619,2.79021 0.89663,0.74248 2.00616,1.13506 3.03988,1.64197 1.15091,0.59361 2.56594,0.59016 3.39024,1.6722 0.31905,1.16943 -0.22552,2.25717 -0.62766,3.32839 -0.4654,1.22236 -0.86947,2.43916 -1.0941,3.73133 -0.38472,1.82801 -2.2004,3.01291 -4.0847,3.01756 -1.24172,-0.0585 -2.40702,-0.58626 -3.5536,-1.02777 -1.17006,-0.44022 -2.27588,-0.95998 -3.50875,-1.21223 -1.31857,-0.21302 -2.65834,-0.21803 -3.99045,-0.23019 -1.38805,0.2475 -2.8056,0.36495 -4.18008,0.67782 -0.60839,0.11709 -2.95747,1.02124 -0.0367,-0.27015 0.17423,-0.077 -0.30929,0.22264 -0.46758,0.32863 -0.92349,0.61837 -0.0408,-0.0179 -0.90351,0.61878 -0.95156,0.60124 -1.6338,1.49752 -2.30395,2.38195 -0.59983,0.91091 -1.09684,1.87558 -1.61804,2.83181 -0.39668,0.9521 -0.93247,1.83487 -1.59197,2.62611 -2.62514,1.69784 -2.29206,1.65483 -4.13272,0.007 -0.97956,-0.94162 -1.84321,-1.99402 -2.80013,-2.95567 -1.1163,-0.99275 -2.08747,-2.12731 -3.27284,-3.04101 -1.00387,-0.82087 -2.03595,-1.59574 -2.94505,-2.52498 0,0 1.76062,-1.07671 1.76062,-1.07671 l 0,0 c 0.90584,0.91886 1.93057,1.68752 2.92463,2.50548 1.18215,0.93042 2.16546,2.06451 3.28769,3.06305 0.94866,0.9649 1.81862,2.00425 2.79756,2.94147 0.36965,0.32492 0.76552,0.76711 1.19147,1.02166 0.0897,0.0536 0.19218,0.0965 0.29655,0.1017 0.11928,0.006 0.44701,-0.14095 0.35155,-0.0692 -0.42619,0.32039 -0.91078,0.55463 -1.36617,0.83194 0.6899,-0.7508 1.22784,-1.64071 1.61213,-2.5842 0.51531,-0.96814 1.03289,-1.92677 1.60864,-2.86016 0.65203,-0.89877 1.3344,-1.82546 2.27978,-2.43436 1.46386,-1.16324 3.11745,-2.30319 4.96627,-2.6874 1.38847,-0.28309 2.80475,-0.455 4.20849,-0.64184 1.34182,0.0153 2.69238,0.0252 4.01757,0.26141 1.233,0.27328 2.34718,0.80406 3.52528,1.24026 1.12877,0.4347 2.28334,0.94203 3.5101,0.95783 1.13198,-0.0691 0.58946,-0.13522 -0.69685,0.84915 -0.13928,0.10658 0.31632,-0.15675 0.45523,-0.26381 0.48205,-0.37152 0.68546,-0.90472 0.81098,-1.48064 0.21325,-1.30457 0.59517,-2.53573 1.07158,-3.76349 0.37185,-1.01637 0.9268,-2.02267 0.71958,-3.14137 -0.7929,-1.03072 -2.25333,-0.97448 -3.33014,-1.59615 -1.04818,-0.50097 -2.15789,-0.91344 -3.06169,-1.66415 -1.09209,-0.76364 -1.92219,-1.82721 -2.73033,-2.87508 -0.86144,-1.45937 -1.45423,-3.05096 -2.28679,-4.528 -0.75192,-1.47424 -1.32351,-3.06645 -1.79854,-4.64989 -0.4683,-1.31634 -0.94419,-2.62989 -1.38045,-3.95658 -0.4917,-1.43446 -0.83381,-2.90651 -1.31443,-4.34531 -0.45202,-1.07312 -0.88602,-1.97714 -2.19794,-1.97112 -1.36106,0.0443 -2.72295,0.12053 -4.06706,0.35335 -1.63144,0.26108 -3.25593,0.35307 -4.90819,0.36993 -0.22678,0.0251 -0.45502,0.0393 -0.68032,0.0753 -0.17851,0.0285 -0.66231,0.24033 -0.52934,0.11787 0.38811,-0.35744 0.89522,-0.55926 1.33124,-0.85639 0.0303,-0.0207 -1.06702,0.73587 -0.63155,0.85012 0.27894,1.26662 1.14074,2.35423 1.11712,3.70358 0.21002,1.3934 0.54153,2.77523 0.42803,4.19484 -0.0195,1.32661 -0.0375,2.66234 -0.29153,3.96934 -0.32285,1.38847 -0.86818,2.70953 -1.28578,4.06976 -0.65323,1.46706 -1.53961,2.81016 -2.11097,4.31497 -0.66185,1.16773 -1.44086,2.27305 -2.25165,3.33912 -1.07108,1.19804 -2.45261,2.06636 -3.68012,3.09541 -1.38785,1.06146 -2.73027,2.17904 -4.07647,3.29319 0,0 -1.91954,0.7951 -1.91954,0.7951 z"
       inkscape:connector-curvature="0" />
    <path
       style="fill:#000000;fill-opacity:1;stroke:#000000;stroke-opacity:1"
       id="path3773"
       d="m 361.16818,617.5763 c -0.55228,-1.33074 -1.15071,-2.64866 -1.96659,-3.84005 -0.11814,-0.17832 -0.23627,-0.35664 -0.3544,-0.53496 0,0 1.77907,-1.04138 1.77907,-1.04138 l 0,0 c 0.11699,0.17793 0.23399,0.35585 0.35099,0.53378 0.81187,1.20446 1.41201,2.52834 1.99551,3.85511 0,0 -1.80458,1.0275 -1.80458,1.0275 z"
       inkscape:connector-curvature="0" />
    <path
       style="fill:#000000;fill-opacity:1;stroke:#000000;stroke-opacity:1"
       id="path3775"
       d="m 366.20886,618.14901 c -0.0129,-1.61069 -0.0184,-3.20591 0.20285,-4.80303 0,0 1.84055,-0.90532 1.84055,-0.90532 l 0,0 c -0.23072,1.58466 -0.24575,3.16645 -0.19538,4.76674 0,0 -1.84802,0.94161 -1.84802,0.94161 z"
       inkscape:connector-curvature="0" />
    <path
       style="fill:#000000;fill-opacity:1;stroke:#000000;stroke-opacity:1"
       id="path3777"
       d="m 467.27424,693.53118 c -1.59191,-0.0102 -3.18387,-0.007 -4.7758,-0.007 -1.8538,0.13492 -3.64838,-0.28143 -5.45058,-0.64189 -1.92907,-0.22874 -3.72676,-0.91539 -5.54216,-1.55331 -1.27574,-0.37583 -2.58523,-0.6585 -3.83487,-1.1175 -0.66754,-0.17111 -1.27928,-0.49176 -1.90507,-0.77082 0,0 1.71594,-1.13985 1.71594,-1.13985 l 0,0 c 0.62184,0.2777 1.23521,0.58382 1.89733,0.75728 1.25561,0.43884 2.55873,0.73099 3.82982,1.1203 1.79967,0.64831 3.5917,1.30782 5.50713,1.54108 1.80001,0.35292 3.59456,0.72789 5.44226,0.5988 1.59799,7.5e-4 3.19601,0.004 4.79397,-0.007 0,0 -1.67797,1.21912 -1.67797,1.21912 z"
       inkscape:connector-curvature="0" />
    <path
       style="fill:#000000;fill-opacity:1;stroke:#000000;stroke-opacity:1"
       id="path3779"
       d="m 486.01186,689.50094 c 1.06014,-1.38833 1.68391,-3.02883 2.40123,-4.60519 0.79207,-1.46721 1.60967,-2.91669 2.23417,-4.46652 0.57144,-1.40647 0.58164,-2.92709 0.81059,-4.40251 0.26582,-1.44626 0.76744,-2.84127 1.25603,-4.2253 0,0 1.86222,-0.8707 1.86222,-0.8707 l 0,0 c -0.4839,1.3759 -0.99326,2.75758 -1.27078,4.19184 -0.25209,1.48435 -0.22957,3.02314 -0.79776,4.44579 -0.61026,1.55729 -1.41212,3.01783 -2.22696,4.47423 -0.71878,1.57935 -1.35102,3.21557 -2.36399,4.63753 0,0 -1.90475,0.82083 -1.90475,0.82083 z"
       inkscape:connector-curvature="0" />
    <path
       style="fill:#000000;fill-opacity:1;stroke:#000000;stroke-opacity:1"
       id="path3781"
       d="m 482.88777,703.23198 c 0.6184,1.35462 0.89291,2.81746 1.08083,4.284 0.15638,1.45602 0.16579,2.92193 0.17388,4.38461 0.0926,1.1452 -0.23026,2.18087 -0.79865,3.15746 0,0 -1.88855,0.83421 -1.88855,0.83421 l 0,0 c 0.60544,-0.92512 0.94255,-1.93655 0.85439,-3.05667 -0.006,-1.45572 -0.0118,-2.91451 -0.15941,-4.3643 -0.17775,-1.44297 -0.43375,-2.88901 -1.06707,-4.21181 0,0 1.80458,-1.0275 1.80458,-1.0275 z"
       inkscape:connector-curvature="0" />
    <path
       style="fill:#000000;fill-opacity:1;stroke:#000000;stroke-opacity:1"
       id="path3785"
       d="m 478.11348,689.13518 c 0.15574,-0.76288 0.22469,-1.5847 -0.31869,-2.19851 -0.23803,-0.18054 -0.51223,-0.27881 -0.81573,-0.23225 -0.0882,0.0135 -0.33093,0.1303 -0.25376,0.0855 1.12185,-0.65189 0.95437,-0.54682 0.51936,-0.12105 -0.43628,0.70271 -0.9494,1.35373 -1.40704,2.04301 -0.373,0.67727 -0.43078,1.46245 -0.59801,2.20575 -0.13578,0.85789 -0.38475,1.69004 -0.55186,2.5415 -0.13892,0.70623 -0.54849,1.30001 -0.78964,1.96775 -0.18983,0.71379 -0.53161,1.3864 -0.21302,2.10589 0.31054,0.6686 0.93084,0.84866 1.60375,0.96606 -0.0563,0.32686 1.43914,-0.50818 1.07112,-0.25642 -1.58017,1.08099 -0.51046,0.26457 -0.18757,0.0401 0.67963,-0.41397 1.22443,-0.99803 1.5743,-1.70982 0.37724,-0.72178 0.53358,-1.52194 0.79444,-2.28696 0.25693,-0.73187 0.32157,-1.50416 0.3633,-2.27258 0.0237,-0.55955 0.0251,-1.11967 0.0273,-1.67961 0,0 1.12094,-0.57067 1.12094,-0.57067 l 0,0 c -0.002,0.56158 -0.003,1.12331 -0.0237,1.68458 -0.038,0.77739 -0.0946,1.56033 -0.34612,2.30329 -0.26472,0.76786 -0.42326,1.56927 -0.7894,2.29971 -0.32742,0.73007 -0.8596,1.35392 -1.54824,1.76927 -0.91524,0.66186 -1.91576,1.44421 -3.08974,1.40122 -0.70824,-0.14011 -1.34492,-0.36893 -1.67135,-1.06785 -0.33878,-0.7591 -0.037,-1.43431 0.17054,-2.19089 0.22483,-0.67437 0.63936,-1.25581 0.80223,-1.95374 0.16195,-0.85386 0.41816,-1.68463 0.54928,-2.54453 0.16968,-0.754 0.23033,-1.54489 0.57664,-2.24474 0.44295,-0.70525 1.00584,-1.32872 1.40004,-2.06743 0.74434,-0.79762 1.81239,-1.62499 2.79383,-0.86708 0.55218,0.65548 0.53084,1.48542 0.37704,2.29766 0,0 -1.14023,0.5529 -1.14023,0.5529 z"
       inkscape:connector-curvature="0" />
    <path
       style="fill:#000000;fill-opacity:1;stroke:#000000;stroke-opacity:1"
       id="path3787"
       d="m 481.93666,687.21951 c 1.15399,0.61145 2.18481,1.42663 3.24717,2.1822 1.09337,0.64266 2.00642,1.53891 3.06334,2.23046 0.66028,0.39936 1.21178,0.94734 1.8571,1.36345 0.64505,0.42494 1.37517,0.59603 1.88471,1.2011 0.43167,0.71288 0.43124,1.55793 0.45643,2.36523 -0.0261,0.89621 0.13617,1.82501 -0.1584,2.68704 -0.65329,0.97508 -1.87164,1.28211 -2.97539,1.35031 -1.00137,0.17051 -2.00671,0.29178 -3.02006,0.35829 -1.06265,0.0603 -2.12742,0.0618 -3.19143,0.066 -1.02329,0.001 -2.04658,-7.4e-4 -3.06987,-0.001 -0.43021,0.0406 -0.84716,-0.0495 -1.26579,-0.13027 0,0 1.03305,-0.7217 1.03305,-0.7217 l 0,0 c 0.4129,0.0751 0.82483,0.15038 1.24754,0.11482 1.02276,0.002 2.04553,0.004 3.06829,0.001 1.06206,-0.004 2.12487,-0.008 3.1854,-0.0716 1.01528,-0.0717 2.02082,-0.20738 3.02637,-0.36329 0.28783,-0.0227 0.4923,-0.0301 0.77502,-0.0863 0.11662,-0.0232 0.43144,-0.1709 0.34548,-0.0888 -0.22173,0.21194 -0.51794,0.3288 -0.77373,0.49807 -0.0867,0.0574 0.18659,-0.0955 0.26628,-0.16225 0.079,-0.0661 0.13621,-0.15454 0.20432,-0.23182 0.34791,-0.83203 0.14992,-1.76558 0.18698,-2.64598 -0.024,-0.77638 -0.0152,-1.59781 -0.42262,-2.28701 -0.50267,-0.58465 -1.24453,-0.73911 -1.86454,-1.1713 -0.63787,-0.42629 -1.19781,-0.96056 -1.85184,-1.36769 -1.04548,-0.70643 -1.96061,-1.59601 -3.05008,-2.24347 -1.0676,-0.75733 -2.10931,-1.56633 -3.27494,-2.16842 0,0 1.07121,-0.67753 1.07121,-0.67753 z"
       inkscape:connector-curvature="0" />
    <path
       style="fill:#000000;fill-opacity:1;stroke:#000000;stroke-opacity:1"
       id="path3789"
       d="m 273.45707,685.23048 c -1.43431,1.14171 -3.09819,1.94709 -4.72523,2.77494 -0.74953,0.46547 -1.56453,0.79627 -2.36467,1.15872 -0.18984,0.086 -0.61544,0.47077 -0.56457,0.26866 0.0536,-0.2129 0.38461,-0.21182 0.57692,-0.31772 -1.16464,0.67729 -2.29514,1.4581 -3.59469,1.84817 -0.92993,0.35262 -1.84345,0.70561 -2.82265,0.90521 -0.77976,0.10165 -1.53153,0.33518 -2.25375,0.6375 -0.78754,0.30426 -1.55917,0.64125 -2.36807,0.88896 -0.46199,0.13591 -0.9379,0.20269 -1.41355,0.26709 0,0 1.00526,-0.75211 1.00526,-0.75211 l 0,0 c 0.47146,-0.0692 0.94305,-0.14104 1.39981,-0.28239 0.80657,-0.25819 1.57941,-0.59792 2.36832,-0.90342 0.72474,-0.29734 1.48538,-0.5003 2.26121,-0.61377 0.97439,-0.21157 1.88339,-0.58049 2.81793,-0.91672 0.42756,-0.13914 0.82156,-0.2983 1.21872,-0.51113 0.13913,-0.0746 0.54424,-0.31933 0.41308,-0.23151 -0.063,0.0422 -1.37656,0.82508 -0.19725,0.11364 0.52127,-0.30272 1.03581,-0.61735 1.56381,-0.90817 0.94736,-0.5218 2.01614,-0.81968 2.92224,-1.42657 1.59489,-0.81302 0.90705,-0.31207 2.58788,-1.51506 0,0 1.16925,-0.48432 1.16925,-0.48432 z"
       inkscape:connector-curvature="0" />
    <path
       style="fill:#000000;fill-opacity:1;stroke:#000000;stroke-opacity:1"
       id="path3795"
       d="m 247.19107,703.17374 c 0.30731,0.95842 0.53159,1.93486 0.67372,2.93055 0.11384,0.90563 0.12729,1.8192 0.13562,2.73061 0,0 -1.1198,0.57174 -1.1198,0.57174 l 0,0 c -0.007,-0.90694 -0.017,-1.81601 -0.12466,-2.71779 -0.1364,-0.9929 -0.34992,-1.97021 -0.68239,-2.91764 0,0 1.11751,-0.59747 1.11751,-0.59747 z"
       inkscape:connector-curvature="0" />
    <path
       style="fill:#000000;fill-opacity:1;stroke:#000000;stroke-opacity:1"
       id="path3797"
       d="m 250.29003,695.12935 c -0.0624,-0.86112 -0.28002,-1.65468 -0.6476,-2.43026 -0.43015,-0.64246 -0.83985,-1.29685 -1.34902,-1.87999 -0.55436,-0.57119 -1.17123,-1.03948 -1.81222,-1.50349 -0.24599,-0.16209 -0.51377,-0.36762 -0.82996,-0.27395 -0.0817,0.0242 -0.30044,0.16116 -0.22345,0.12451 0.9587,-0.45636 1.06694,-0.72986 0.73102,-0.18822 -0.24502,0.75491 -0.42301,1.53806 -0.55949,2.32108 -0.19152,0.85997 -0.0272,1.71288 0.087,2.56899 0.0576,0.80248 0.32643,1.53873 0.70323,2.23922 0.59638,0.86938 1.41537,1.56503 2.11609,2.35365 0.587,0.44549 1.0367,0.9365 1.45042,1.53986 0.52576,0.60372 1.39023,0.49322 2.10258,0.35817 0.1463,-0.0336 0.29565,-0.0559 0.43889,-0.10076 0.13251,-0.0415 0.50129,-0.23444 0.38563,-0.15759 -0.24047,0.15976 -0.4878,0.32337 -0.7636,0.40871 -0.11245,0.0348 0.17666,-0.15737 0.24969,-0.24968 0.18242,-0.23062 0.20938,-0.36565 0.31253,-0.63726 0.25073,-0.82551 0.20195,-1.5719 -0.15732,-2.34459 -0.42181,-0.94775 -1.03074,-1.78672 -1.64281,-2.61673 -0.26431,-0.43074 -0.5404,-0.84721 -0.84979,-1.24637 0,0 1.07823,-0.64169 1.07823,-0.64169 l 0,0 c 0.30697,0.40168 0.58474,0.81847 0.848,1.25046 0.6165,0.83686 1.23082,1.68175 1.65958,2.63523 0.38106,0.79805 0.44516,1.56802 0.20649,2.42982 -0.40984,1.23964 -1.52567,1.78367 -2.7697,2.02627 -0.76874,0.11678 -1.6429,0.1866 -2.18825,-0.4737 -0.40786,-0.59902 -0.86576,-1.07624 -1.43561,-1.53027 -0.70485,-0.7982 -1.52395,-1.50447 -2.13211,-2.37776 -0.38638,-0.71321 -0.66806,-1.45977 -0.72484,-2.27939 -0.11496,-0.86672 -0.29166,-1.73112 -0.10416,-2.60277 0.13271,-0.79499 0.32563,-1.57979 0.53492,-2.35656 0.29163,-0.58754 1.24819,-1.35457 1.95648,-1.17466 0.20689,0.0525 0.41269,0.2092 0.58435,0.32023 0.64952,0.46732 1.26559,0.95273 1.82636,1.52856 0.51594,0.59198 0.93345,1.25598 1.36514,1.91072 0.37413,0.79209 0.59584,1.59939 0.68262,2.47478 0,0 -1.12935,0.57543 -1.12935,0.57543 z"
       inkscape:connector-curvature="0" />
    <path
       style="fill:#000000;fill-opacity:1;stroke:#000000;stroke-opacity:1"
       id="path3799"
       d="m 244.10874,690.80286 c -0.12003,1.02778 -0.50271,1.98899 -0.89589,2.93885 -0.40055,0.9532 -1.00704,1.78012 -1.32869,2.76962 -0.42964,1.02294 -0.72894,2.09009 -1.1173,3.12759 -0.18336,0.72592 -0.42215,1.36927 -0.92281,1.93302 -0.47012,0.43855 -0.39483,0.81447 0.0313,1.22931 0.5401,0.32779 1.15651,0.50501 1.7206,0.78477 0.77474,0.36173 1.56161,0.64983 2.40092,0.81664 0.88158,0.1524 1.44758,0.22527 2.2552,-0.18037 -1.59654,0.97853 -0.65309,0.21238 -0.33078,-0.098 0.2688,-0.25886 0.50678,-0.52914 0.734,-0.82465 0.55713,-0.64911 1.20701,-1.21849 1.85431,-1.77688 0.40246,-0.33101 0.20912,-0.15868 0.58044,-0.51652 0,0 1.1643,-0.48168 1.1643,-0.48168 l 0,0 c -0.36414,0.37129 -0.17215,0.19605 -0.57609,0.52556 -0.65567,0.54279 -1.28943,1.12542 -1.86588,1.75048 -0.67598,0.93544 -1.54546,1.63282 -2.54869,2.20946 -0.74866,0.34032 -1.50216,0.26703 -2.29845,0.11066 -0.84482,-0.17923 -1.64013,-0.47787 -2.42401,-0.83878 -0.58021,-0.27377 -1.20932,-0.46052 -1.74594,-0.81855 -0.43242,-0.43992 -0.62829,-0.91803 -0.11805,-1.40404 0.53383,-0.53332 0.77461,-1.16466 0.9506,-1.89086 0.39311,-1.03502 0.69627,-2.09907 1.12313,-3.12236 0.30208,-1.00408 0.90701,-1.83046 1.32527,-2.781 0.39783,-0.93682 0.79099,-1.88915 0.89232,-2.90936 0,0 1.14023,-0.5529 1.14023,-0.5529 z"
       inkscape:connector-curvature="0" />
    <path
       style="fill:#000000;fill-opacity:1;stroke:#000000;stroke-opacity:1"
       id="path3803"
       d="m 229.75819,677.88425 c 0.63499,1.01422 1.50571,1.86155 2.33318,2.71812 0.81207,0.93121 1.73144,1.75177 2.58958,2.63888 0.8543,0.75954 1.64274,1.57758 2.42573,2.40893 0.44542,0.63762 1.1049,1.05001 1.67718,1.55562 0.41677,0.51327 0.82549,1.02718 1.24983,1.53395 0.3957,0.56872 0.63822,1.22375 0.96026,1.83248 0.0487,0.097 0.0974,0.19406 0.14612,0.2911 0,0 -1.09799,0.62535 -1.09799,0.62535 l 0,0 c -0.0482,-0.0963 -0.0965,-0.19257 -0.14474,-0.28886 -0.31676,-0.60146 -0.55563,-1.24827 -0.94537,-1.81007 -0.42161,-0.5008 -0.82563,-1.01085 -1.24128,-1.5167 -0.57783,-0.50404 -1.22731,-0.93298 -1.67415,-1.57199 -0.77748,-0.83702 -1.57005,-1.6495 -2.42732,-2.40616 -0.84922,-0.89396 -1.7661,-1.71504 -2.57569,-2.64666 -0.83427,-0.8604 -1.70677,-1.70991 -2.36535,-2.71713 0,0 1.09001,-0.64686 1.09001,-0.64686 z"
       inkscape:connector-curvature="0" />
    <path
       style="fill:#000000;fill-opacity:1;stroke:#000000;stroke-opacity:1"
       id="path3805"
       d="m 359.20065,465.07321 c 0.39478,0.82409 0.50375,1.73326 0.70827,2.61226 0.24851,0.89405 0.37513,1.80984 0.43472,2.73367 0.0725,0.96411 -0.006,1.93481 0.0975,2.89569 0.1533,0.86684 0.26585,1.73777 0.32647,2.61582 0.0453,0.97129 0.0479,1.94391 0.0509,2.91605 0.10684,0.76444 0.26733,1.51719 0.34703,2.28597 0.0771,0.89267 0.0739,1.78948 0.0785,2.68469 0.003,0.92754 0.002,1.85509 0.001,2.78264 -6e-4,0.86065 -8e-4,1.7213 -9.2e-4,2.58194 -1e-5,0.14231 -2e-5,0.28462 -3e-5,0.42693 0,0 -1.12067,0.57099 -1.12067,0.57099 l 0,0 c 2e-5,-0.14231 3e-5,-0.28462 5e-5,-0.42694 1.6e-4,-0.8608 4e-4,-1.7216 0.002,-2.58241 0.001,-0.92779 0.004,-1.85558 0.002,-2.78337 -0.004,-0.89069 -0.006,-1.78279 -0.0782,-2.67115 -0.0779,-0.77352 -0.23747,-1.53073 -0.34896,-2.29908 -0.001,-0.96937 -8.1e-4,-1.93936 -0.049,-2.90778 -0.0577,-0.87668 -0.16583,-1.7468 -0.32236,-2.61162 -0.11297,-0.96218 -0.0259,-1.93534 -0.0989,-2.90164 -0.06,-0.91693 -0.17724,-1.82761 -0.42526,-2.71511 -0.20594,-0.86756 -0.30059,-1.77114 -0.70656,-2.57963 0,0 1.1028,-0.62792 1.1028,-0.62792 z"
       inkscape:connector-curvature="0" />
    <path
       style="fill:#000000;fill-opacity:1;stroke:#000000;stroke-opacity:1"
       id="path3807"
       d="m 359.06075,454.01674 c -0.98224,-0.0676 -1.94435,0.0555 -2.91308,0.19665 -0.14238,0.0406 -0.28971,0.0668 -0.42716,0.12186 -0.11951,0.0479 -0.44996,0.25044 -0.339,0.18514 0.25377,-0.14935 1.02437,-0.58131 0.76751,-0.43733 -0.46466,0.26046 -0.93348,0.51388 -1.39094,0.78679 -0.2631,0.15696 0.5214,-0.3294 0.80757,-0.43877 0.097,-0.0371 -0.14972,0.14397 -0.22459,0.21595 -0.53707,0.45336 -0.73423,1.04932 -0.85007,1.71834 -0.25809,0.80593 -0.13822,1.61561 0.1011,2.40697 0.27426,0.80719 0.65,1.59367 1.13949,2.29383 0.37053,0.64797 0.9782,1.02375 1.65184,1.2983 0.80798,0.20128 1.62947,0.35245 2.44791,0.51456 0.8139,0.15875 1.62079,0.2289 2.43792,0.0846 0.82849,-0.39426 -0.31262,0.23998 -0.49416,0.3093 -0.10789,0.0412 0.1733,-0.15277 0.25766,-0.23166 0.26527,-0.24808 0.46879,-0.49329 0.66337,-0.79897 0.28,-0.70493 0.55047,-1.44585 0.61966,-2.20589 -0.004,-0.70877 -0.0756,-1.4075 -0.26801,-2.08913 -0.35489,-0.59904 -0.81622,-1.07966 -1.32438,-1.54369 -0.54955,-0.47669 -1.24994,-0.57399 -1.94732,-0.64301 -0.13369,-0.008 -0.26738,-0.0158 -0.40106,-0.0237 0,0 1.02328,-0.73358 1.02328,-0.73358 l 0,0 c 0.1349,0.009 0.26981,0.0184 0.40471,0.0275 0.721,0.0811 1.43392,0.20691 1.99435,0.70774 0.52572,0.47846 0.99294,0.98781 1.35913,1.60457 0.19839,0.6954 0.27545,1.40595 0.28759,2.12964 -0.0543,0.77896 -0.33921,1.52633 -0.59384,2.25855 -0.56122,0.97262 -1.50941,1.65643 -2.58932,1.99013 -0.82488,0.12441 -1.64429,0.0339 -2.46117,-0.12374 -0.82382,-0.16671 -1.65733,-0.30212 -2.46421,-0.5338 -0.68858,-0.29642 -1.30989,-0.69007 -1.68984,-1.35887 -0.4915,-0.71434 -0.87634,-1.5099 -1.15515,-2.32955 -0.24838,-0.79741 -0.40194,-1.64143 -0.13212,-2.45601 0.10403,-0.67945 0.26837,-1.32281 0.81565,-1.7869 0.57566,-0.6383 0.0873,-0.14342 1.56755,-1.05363 0.25419,-0.1563 -1.03096,0.60134 -0.77003,0.45658 0.74767,-0.41479 1.35368,-0.90549 2.17948,-1.0735 0.9758,-0.14007 1.94707,-0.23815 2.93511,-0.1904 0,0 -1.02543,0.74501 -1.02543,0.74501 z"
       inkscape:connector-curvature="0" />
    <path
       style="fill:#000000;fill-opacity:1;stroke:#000000;stroke-opacity:1"
       id="path3809"
       d="m 352.89981,453.23774 c 0.22687,-1.22459 0.50693,-2.44011 0.88931,-3.62572 0.40496,-0.80788 0.77645,-1.63038 1.17606,-2.44068 0.35293,-0.54121 0.59247,-1.1254 1.1274,-1.51043 0.46184,-0.24833 0.90954,-0.52497 1.38552,-0.74497 0.54049,-0.24982 1.9938,-0.1813 2.60813,-0.19204 0.94283,-0.0285 1.9028,-0.13944 2.53613,0.6677 0.41963,0.86945 0.3429,1.87879 0.34994,2.81999 0.001,1.09854 -0.008,2.19706 -0.0135,3.29558 -0.002,0.61007 -0.001,0.30718 -0.003,0.90865 0,0 -1.11979,0.57005 -1.11979,0.57005 l 0,0 c 0.003,-0.60213 0.001,-0.29889 0.005,-0.90972 0.008,-1.09926 0.0223,-2.1985 0.0219,-3.2978 -0.008,-0.91103 0.0626,-1.89205 -0.32448,-2.73916 -0.60593,-0.75544 -1.58228,-0.58759 -2.45963,-0.57991 -0.57418,0.0121 -1.15036,0.018 -1.72227,0.077 -0.16278,0.0168 -0.32574,0.035 -0.48662,0.0649 -0.12964,0.0241 -0.47692,0.18999 -0.38354,0.0969 0.2193,-0.21864 0.52325,-0.33134 0.78488,-0.49701 -0.57765,0.34254 -0.78635,0.91388 -1.15646,1.44954 -0.39832,0.81186 -0.77091,1.6336 -1.19844,2.43186 -0.3948,1.17225 -0.6727,2.38244 -0.87566,3.60237 0,0 -1.14023,0.5529 -1.14023,0.5529 z"
       inkscape:connector-curvature="0" />
    <path
       style="fill:#000000;fill-opacity:1;stroke:#000000;stroke-opacity:1"
       id="path3811"
       d="m 367.43497,456.69053 c 1.01083,0.10989 1.94907,-0.1982 2.90813,-0.45999 0.88565,-0.17971 1.67779,-0.62119 2.53533,-0.89012 1.01647,-0.46999 2.0183,-0.97125 3.0329,-1.44538 0.88394,-0.36454 1.82983,-0.55753 2.65501,-1.05179 -0.23873,0.13585 -0.95629,0.54097 -0.71619,0.40756 1.12806,-0.6268 2.13266,-1.15221 3.33686,-1.57934 1.2405,-0.4687 2.45946,-0.9938 3.68568,-1.49918 1.04669,-0.46108 2.09639,-0.89609 3.1248,-1.3965 0.54549,-0.21082 1.08499,-0.42577 1.62444,-0.65229 0,0 -0.98903,0.78057 -0.98903,0.78057 l 0,0 c -0.53594,0.22586 -1.07991,0.42599 -1.61474,0.6535 -1.0248,0.50079 -2.07981,0.91966 -3.12145,1.38397 -1.22794,0.50844 -2.45034,1.03297 -3.69492,1.49904 -0.4998,0.18208 -1.00009,0.36714 -1.48444,0.58819 -0.1401,0.0639 -0.53782,0.29617 -0.41467,0.20369 0.13759,-0.10333 3.05099,-1.79055 -0.71353,0.40147 -0.84064,0.45899 -1.7792,0.66401 -2.65655,1.04015 -1.01453,0.48018 -2.01812,0.98343 -3.04594,1.43532 -0.85108,0.28245 -1.65032,0.71138 -2.53704,0.88425 -0.96868,0.26496 -1.92201,0.53463 -2.94007,0.4419 0,0 1.02542,-0.74502 1.02542,-0.74502 z"
       inkscape:connector-curvature="0" />
    <path
       style="fill:#000000;fill-opacity:1;stroke:#000000;stroke-opacity:1"
       id="path3813"
       d="m 350.08639,457.43555 c -0.97449,-0.0266 -1.95247,0.0483 -2.92223,-0.0604 -0.90438,-0.12524 -1.77625,-0.42201 -2.61544,-0.77302 -0.64693,-0.30564 -1.30951,-0.55344 -1.97973,-0.80403 -0.7198,-0.34943 -1.43324,-0.72278 -2.11311,-1.14506 -0.59697,-0.43235 -1.32818,-0.46436 -2.01037,-0.65601 -0.72721,-0.16066 -1.40173,-0.44066 -2.0644,-0.77199 -0.58216,-0.36059 -1.0679,-0.84332 -1.63645,-1.2228 -0.55684,-0.39028 -1.05026,-0.85462 -1.56885,-1.29118 -0.60972,-0.3709 -1.33128,-0.5516 -2.02054,-0.72545 -0.53411,-0.10393 -0.27524,-0.0373 -0.77735,-0.19703 0,0 1.04129,-0.70986 1.04129,-0.70986 l 0,0 c 0.49555,0.14851 0.23831,0.083 0.77265,0.19288 0.70413,0.18413 1.44573,0.36289 2.05626,0.77027 0.51145,0.43781 1.00627,0.89337 1.55913,1.28084 0.56016,0.38188 1.04689,0.85604 1.62748,1.20907 0.6568,0.32823 1.33279,0.58694 2.051,0.75062 0.69683,0.18026 1.4265,0.24886 2.03005,0.68649 0.67759,0.41212 1.37583,0.79718 2.09845,1.12455 0.67535,0.24266 1.32934,0.51265 1.98205,0.80926 0.82945,0.347 1.69452,0.63204 2.58958,0.74603 0.97211,0.0909 1.95055,0.0303 2.92596,0.0418 0,0 -1.02543,0.74502 -1.02543,0.74502 z"
       inkscape:connector-curvature="0" />
    <path
       style="fill:#000000;fill-opacity:1;stroke:#b4b4b4;stroke-opacity:1"
       id="path3815"
       d="m 367.60776,562.56375 c -0.97283,-0.006 -1.9457,-0.004 -2.91854,-0.004 -0.87524,-0.007 -1.73835,-0.0422 -2.59823,0.13349 -0.0509,-0.0889 -1.18509,0.34065 -1.04504,0.24551 1.47096,-0.9992 0.70203,-0.39716 0.45767,0.0171 -0.27472,0.70125 -0.33388,1.42339 0.0773,2.07281 0.39203,0.6571 1.02754,0.86592 1.74035,0.99053 0.69561,0.23839 1.41075,0.37087 2.14044,0.44264 0.8278,0.063 1.65868,0.0623 2.48835,0.0647 0.47757,-0.10043 0.97431,-0.14832 1.44751,-0.26885 0.42173,-0.10743 0.95623,-0.46107 -0.50257,0.34104 0.54469,-0.3344 0.89999,-0.89582 1.27252,-1.40361 0.241,-0.32047 0.92772,-0.87908 0.36146,-1.1856 -0.68973,-0.1934 -1.42048,-0.17121 -2.13108,-0.17774 -0.71726,-0.002 -1.43451,0.003 -2.15176,0.006 0,0 1.01701,-0.73956 1.01701,-0.73956 l 0,0 c 0.71778,-0.003 1.43558,-0.008 2.15337,-0.005 0.72736,0.009 1.48728,-0.0217 2.18018,0.22907 0.60673,0.43136 0.11519,0.94861 -0.27158,1.3708 -0.36203,0.51826 -0.73185,1.08531 -1.25091,1.44951 -0.45153,0.25906 -0.89255,0.53734 -1.35458,0.77717 -0.52449,0.27225 -1.22787,0.20182 -1.78741,0.34563 -0.83274,-0.003 -1.6669,-0.004 -2.49731,-0.0737 -0.73156,-0.0788 -1.44528,-0.22559 -2.14674,-0.45077 -0.7404,-0.14617 -1.3917,-0.3971 -1.79777,-1.07752 -0.42906,-0.69052 -0.40117,-1.43228 -0.13993,-2.1899 0.49886,-1.02458 1.69064,-1.37829 2.7463,-1.54096 0.86287,-0.15845 1.73252,-0.10853 2.6068,-0.10987 0.97655,4.6e-4 1.95311,0.002 2.92965,-0.004 0,0 -1.02543,0.74502 -1.02543,0.74502 z"
       inkscape:connector-curvature="0" />
    <path
       style="fill:#000000;fill-opacity:1;stroke:#b4b4b4;stroke-opacity:1"
       id="path3817"
       d="m 364.39389,558.32543 c 0.0129,-1.4968 0.0129,-2.99369 0.0178,-4.49053 0.007,-2.09348 0.001,-4.18695 -0.003,-6.28042 -0.002,-1.46251 -0.004,-2.92502 -0.008,-4.38753 3e-4,-1.06718 -0.002,-2.13436 -0.003,-3.20154 3e-4,-0.16985 6e-4,-0.33969 9e-4,-0.50954 0,0 1.11649,-0.56888 1.11649,-0.56888 l 0,0 c 3e-4,0.16954 6e-4,0.33909 8.9e-4,0.50863 -0.001,1.06821 -0.003,2.13641 -0.003,3.20462 -0.004,1.46519 -0.006,2.93038 -0.008,4.39558 -0.004,2.09438 -0.01,4.18876 -0.003,6.28314 0.005,1.49079 0.005,2.98162 0.0178,4.47236 0,0 -1.12675,0.57411 -1.12675,0.57411 z"
       inkscape:connector-curvature="0" />
    <path
       style="fill:#000000;fill-opacity:1;stroke:#b4b4b4;stroke-opacity:1"
       id="path3819"
       d="m 362.1921,567.63731 c 0.50016,0.88935 1.07701,1.73219 1.62007,2.59523 0.53323,0.80224 1.14659,1.5444 1.7174,2.31843 0.58267,0.64938 1.08951,1.339 1.40472,2.15499 0.1751,0.7236 0.20784,1.41483 0.89426,1.82407 0.69442,0.24566 1.4673,0.3136 2.19458,0.20655 -0.14558,0.28483 1.33587,-0.57271 0.94348,-0.34733 -1.41262,0.8114 -0.75602,0.45887 -0.4587,-0.0327 0.29495,-0.71201 0.29125,-1.49743 0.30795,-2.25578 0.007,-0.92068 0.002,-1.84144 -0.002,-2.76214 -0.002,-0.48053 -0.003,-0.96107 -0.004,-1.4416 0,0 1.11845,-0.57014 1.11845,-0.57014 l 0,0 c 5.5e-4,0.48075 0.001,0.96149 0.003,1.44224 0.003,0.92089 0.014,1.8418 0.007,2.76269 -0.014,0.77469 -0.0113,1.57042 -0.27626,2.30876 -0.49345,0.96488 -1.63406,1.42801 -2.64968,1.64946 -0.75228,0.073 -1.54364,0.0198 -2.24633,-0.27553 -0.68885,-0.45467 -0.76947,-1.13254 -0.93127,-1.8965 -0.30666,-0.80766 -0.81517,-1.48204 -1.38403,-2.12778 -0.57286,-0.77626 -1.19132,-1.51836 -1.71903,-2.32832 -0.54417,-0.86753 -1.12031,-1.71515 -1.64214,-2.59666 0,0 1.1028,-0.62792 1.1028,-0.62792 z"
       inkscape:connector-curvature="0" />
    <path
       style="fill:#000000;fill-opacity:1;stroke:#b4b4b4;stroke-opacity:1"
       id="path3821"
       d="m 377.70974,571.40269 c 0.88355,0.66648 1.93869,1.0122 2.9154,1.50727 0.96922,0.53634 2.02475,0.86397 3.05171,1.26363 0.91931,0.44191 1.80796,0.94228 2.70119,1.43424 1.45968,0.63148 2.84062,1.42117 4.28893,2.07743 0,0 -1.02798,0.6814 -1.02798,0.6814 l 0,0 c -1.44499,-0.66936 -2.83056,-1.45853 -4.29697,-2.082 -0.89839,-0.4782 -1.78951,-0.97088 -2.70668,-1.41226 -1.02704,-0.40551 -2.08482,-0.73576 -3.05494,-1.27543 -0.98398,-0.49164 -2.0324,-0.85846 -2.9328,-1.50705 0,0 1.06214,-0.68723 1.06214,-0.68723 z"
       inkscape:connector-curvature="0" />
    <path
       style="fill:#000000;fill-opacity:1;stroke:#b4b4b4;stroke-opacity:1"
       id="path3823"
       d="m 359.83488,573.64011 c -1.28475,1.06409 -2.56414,2.13263 -3.87936,3.15995 -1.58195,1.2456 -3.35975,2.2113 -5.11468,3.1851 -0.14175,0.0787 0.28168,-0.16053 0.42253,-0.2408 -1.10884,0.70721 -2.133,1.53417 -3.22551,2.26602 -1.50222,1.00128 -3.17561,1.70022 -4.73301,2.59891 -0.80135,0.51996 -1.71962,0.77173 -2.60435,1.10243 -0.1176,0.0361 -0.2352,0.0722 -0.35279,0.10824 0,0 0.99712,-0.77212 0.99712,-0.77212 l 0,0 c 0.1161,-0.0377 0.2322,-0.0754 0.3483,-0.1131 0.87872,-0.32934 1.78779,-0.58571 2.5804,-1.10881 0.58419,-0.32714 1.18666,-0.60994 1.77771,-0.92396 0.21327,-0.1133 0.40955,-0.26241 0.63521,-0.34844 0.15421,-0.0588 -0.56753,0.33514 -0.41787,0.26558 0.21463,-0.0997 0.40928,-0.2378 0.61391,-0.3567 1.09712,-0.72712 2.12184,-1.55326 3.22309,-2.27358 1.59754,-0.91975 2.7402,-1.44658 4.71166,-2.93359 1.30487,-1.01649 2.56884,-2.07773 3.84459,-3.12923 0,0 1.17305,-0.4859 1.17305,-0.4859 z"
       inkscape:connector-curvature="0" />
    <path
       style="fill:#000000;fill-opacity:1;stroke:#ff0000;stroke-opacity:1"
       id="path3829"
       d="m 245.97132,668.64464 c -0.32948,-1.58086 -0.50538,-3.17467 -0.61949,-4.78446 -0.30971,-2.48932 0.25706,-4.89172 0.78006,-7.30261 0.34833,-1.85572 1.08025,-3.53329 2.4778,-4.81719 1.89114,-1.30614 2.73822,-1.87844 4.21958,-0.0632 0.93354,1.52126 1.1532,3.3009 1.5853,4.99756 0.46012,1.50719 0.66503,3.06468 0.77612,4.63098 0.0607,0.99323 0.0724,1.98839 0.0777,2.98315 0,0 -1.11632,0.56924 -1.11632,0.56924 l 0,0 c -10e-4,-0.99416 -0.006,-1.98881 -0.0624,-2.98171 -0.10643,-1.56082 -0.30434,-3.11268 -0.75645,-4.61632 -0.42584,-1.67866 -0.64471,-3.44029 -1.56906,-4.94399 -0.391,-0.46692 -0.8148,-0.97284 -1.47555,-1.04626 -0.17959,-0.0199 -0.53076,0.24224 -0.53857,0.0617 -0.009,-0.21668 0.48769,-0.17115 0.5246,-0.38486 0.0345,-0.19972 -0.34278,0.21636 -0.51418,0.32454 -1.43028,1.24395 -2.18125,2.90671 -2.53515,4.75844 -0.52516,2.40004 -1.10821,4.7897 -0.79264,7.26993 0.11768,1.59905 0.29914,3.18264 0.6562,4.74755 0,0 -1.11752,0.59747 -1.11752,0.59747 z"
       inkscape:connector-curvature="0" />
    <path
       style="fill:#000000;fill-opacity:1;stroke:#ff0000;stroke-opacity:1"
       id="path3831"
       d="m 249.91361,660.96403 c 0.97846,0.0293 1.94459,0.0177 2.91318,-0.12468 0.55979,-0.17167 0.28592,-0.082 0.8219,-0.26811 0,0 -0.9932,0.77241 -0.9932,0.77241 l 0,0 c -0.54019,0.17855 -0.26293,0.0957 -0.8323,0.24672 -0.97583,0.1338 -1.95113,0.12806 -2.93501,0.11868 0,0 1.02543,-0.74502 1.02543,-0.74502 z"
       inkscape:connector-curvature="0" />
    <path
       style="fill:#000000;fill-opacity:1;stroke:#ff0000;stroke-opacity:1"
       id="path3835"
       d="m 257.3566,650.63192 c -0.21164,1.14293 -0.28561,2.30444 -0.34121,3.46352 -0.0469,1.13961 -0.0468,2.28035 -0.0505,3.4207 0.0518,1.00234 0.34975,1.94612 1.00876,2.70747 0.60476,0.72122 1.42278,1.06895 2.24199,1.46576 0.33413,0.19347 0.68495,0.21779 1.05662,0.1161 0.11071,-0.0303 0.41412,-0.19559 0.31712,-0.13421 -1.16625,0.73801 -0.8574,0.50009 -0.48431,0.16597 0.66665,-0.84625 1.03244,-1.90034 1.31162,-2.93062 0.22021,-1.1422 0.53856,-2.26105 0.7798,-3.39843 0.1521,-1.00409 0.29916,-1.99923 0.52214,-2.99017 0.0247,-0.1284 0.0521,-0.25631 0.0742,-0.38518 0.005,-0.0264 0.0605,-0.75939 0.11938,-0.78855 1.2317,-0.61043 1.13819,-0.86863 1.17177,-0.21928 -0.15229,0.94017 -0.27535,1.87994 -0.34275,2.83064 -0.0913,1.06602 -0.0211,2.14001 -0.12935,3.20362 -0.14803,0.85026 -0.2663,1.70276 -0.32749,2.56369 -0.0275,0.55649 -0.0321,0.27921 0.0132,0.83185 0,0 -1.11569,0.58115 -1.11569,0.58115 l 0,0 c -0.0556,-0.56854 -0.0485,-0.28534 -0.0225,-0.84955 0.058,-0.86335 0.16904,-1.71937 0.32866,-2.57012 0.12798,-1.06067 0.0389,-2.13684 0.1371,-3.20162 0.0629,-0.94264 0.16002,-1.87857 0.33185,-2.80817 -0.0332,-0.65454 -0.0831,-0.27779 1.10717,-0.91034 0.0319,-0.0169 -0.0305,0.0661 -0.0379,0.1014 -0.0741,0.35473 -0.0809,0.72213 -0.17351,1.07385 -0.22404,0.99318 -0.39676,1.98514 -0.53532,2.99455 -0.23764,1.13877 -0.55467,2.25828 -0.7712,3.40172 -0.27519,1.04607 -0.64791,2.10184 -1.27583,2.98997 -0.80074,0.81375 -1.99083,1.57286 -3.10538,1.02507 -0.83447,-0.4009 -1.65231,-0.78485 -2.2683,-1.51071 -0.66855,-0.79097 -0.98535,-1.75553 -1.04688,-2.78805 7.2e-4,-1.14268 0.01,-2.28556 0.0513,-3.42759 0.0563,-1.1611 0.13194,-2.32229 0.31509,-3.47154 0,0 1.14023,-0.5529 1.14023,-0.5529 z"
       inkscape:connector-curvature="0" />
    <path
       style="fill:#000000;fill-opacity:1;stroke:#ff0000;stroke-opacity:1"
       id="path3837"
       d="m 274.31386,657.07324 c 0.54332,-0.86985 0.75784,-1.86918 1.06435,-2.83162 0.3517,-0.81111 0.74701,-1.60376 1.05065,-2.43468 0.37861,-0.6798 0.54584,-1.425 0.74771,-2.16624 0.23968,-0.91023 0.21298,-1.15484 1.48331,-1.34062 0.0474,-0.007 0.0628,0.29627 0.0926,0.67538 0.042,1.10238 0.0232,2.20608 0.0186,3.30899 -0.0597,1.12752 0.0296,2.23769 0.18222,3.353 0.15241,1.00333 0.19374,2.01772 0.22264,3.03064 0.0949,0.84453 -0.0873,1.65811 -0.23175,2.48254 -0.0179,0.12576 -0.0359,0.25152 -0.0538,0.37729 0,0 -1.1307,0.55657 -1.1307,0.55657 l 0,0 c 0.0172,-0.12696 0.0344,-0.25392 0.0516,-0.38087 0.13987,-0.81909 0.34626,-1.62363 0.24916,-2.46337 -0.0259,-1.00914 -0.0671,-2.01937 -0.21491,-3.0194 -0.15143,-1.12127 -0.25277,-2.23689 -0.18616,-3.37058 0.005,-1.0979 0.0189,-2.1967 -0.0248,-3.29398 -0.0103,-0.12729 -0.0156,-0.25509 -0.0309,-0.38187 -0.009,-0.0777 -0.10019,-0.1774 -0.043,-0.23093 1.66123,-1.55628 0.89593,-0.55288 0.75297,0.15616 -0.2104,0.74059 -0.34156,1.50248 -0.74549,2.17534 -0.29358,0.83445 -0.6853,1.62983 -1.05463,2.43274 -0.32197,0.95421 -0.50004,1.96941 -1.05031,2.83392 0,0 -1.1494,0.53159 -1.1494,0.53159 z"
       inkscape:connector-curvature="0" />
    <path
       style="fill:#000000;fill-opacity:1;stroke:#ff0000;stroke-opacity:1"
       id="path3839"
       d="m 464.53233,666.46546 c 0.64512,-1.18161 0.8494,-2.51021 1.00729,-3.82812 0.13074,-1.45975 0.12141,-2.92207 0.27361,-4.37998 0.0949,-1.52353 0.26103,-3.0173 0.58596,-4.50846 0.46833,-1.67738 1.02488,-3.33548 1.61592,-4.97447 0.35341,-1.25607 1.02604,-2.35778 1.68478,-3.46744 0.71045,-1.06364 1.89976,-1.74526 3.12074,-2.07537 1.06492,-0.1563 1.87666,0.42297 2.62784,1.0992 0.84558,0.7188 1.26355,1.61756 1.46405,2.68458 0.17288,1.52211 0.15033,3.05953 0.14848,4.58927 -0.003,1.76893 -0.0111,3.53783 -0.0139,5.30676 -0.003,1.6659 -0.001,3.33182 0.001,4.99771 0.002,0.78928 0.004,1.57855 0.005,2.36783 0,0 -1.11594,0.5686 -1.11594,0.5686 l 0,0 c 0.002,-0.79113 0.004,-1.58227 0.005,-2.37341 0.003,-1.66744 0.006,-3.33489 0.008,-5.00233 0.003,-1.7685 0.007,-3.537 0.0121,-5.3055 -0.004,-1.52041 0.0218,-3.04829 -0.15338,-4.56095 -0.19315,-1.04083 -0.59493,-1.91565 -1.42526,-2.61203 -0.73618,-0.65209 -1.5257,-1.1941 -2.55796,-0.99387 -0.14979,0.0455 -0.53951,0.26443 -0.44937,0.13645 0.15354,-0.21799 0.4475,-0.29026 0.66567,-0.44354 0.10987,-0.0772 -0.23202,0.13607 -0.34055,0.21513 -0.14073,0.10252 -0.48048,0.40239 -0.59555,0.53606 -0.096,0.11156 -0.17363,0.23778 -0.26044,0.35666 -0.6563,1.11178 -1.36553,2.19569 -1.71606,3.4563 -0.59694,1.63044 -1.13575,3.28804 -1.615,4.95577 -0.32492,1.4872 -0.50973,2.97314 -0.58907,4.49484 -0.15574,1.45895 -0.15379,2.92077 -0.27526,4.38257 -0.15555,1.32628 -0.35096,2.65872 -0.96162,3.86513 0,0 -1.15658,0.51261 -1.15658,0.51261 z"
       inkscape:connector-curvature="0" />
    <path
       style="fill:#000000;fill-opacity:1;stroke:#ff0000;stroke-opacity:1"
       id="path3841"
       d="m 470.42643,656.26318 c 1.31024,0.009 2.62052,0.009 3.93079,0.008 1.27584,-0.0103 2.49767,-0.37004 3.73697,-0.62126 0,0 -0.9982,0.7564 -0.9982,0.7564 l 0,0 c -1.23877,0.25464 -2.46545,0.59382 -3.74148,0.59337 -1.31784,-0.001 -2.63569,-5.3e-4 -3.95351,0.008 0,0 1.02543,-0.74502 1.02543,-0.74502 z"
       inkscape:connector-curvature="0" />
    <path
       style="fill:#000000;fill-opacity:1;stroke:#ff0000;stroke-opacity:1"
       id="path3843"
       d="m 480.47791,648.53568 c -0.0152,1.49699 -0.0148,2.99412 -0.0131,4.49117 0.0851,1.24052 -0.0984,2.4612 -0.24687,3.6873 -0.14179,0.98154 -2e-4,1.96022 0.37776,2.87162 0.40933,0.69454 1.13674,0.90303 1.9008,0.87613 -0.20062,0.29869 1.13019,-0.48375 0.88522,-0.29253 -0.19582,0.15285 -0.40378,0.34847 -0.65187,0.36115 -0.17001,0.009 0.25752,-0.22352 0.37472,-0.34698 0.2149,-0.22639 0.5099,-0.62477 0.69756,-0.86936 0.79237,-0.98994 1.17841,-2.15491 1.39515,-3.38477 0.25774,-1.1604 0.41778,-2.33677 0.50639,-3.52113 0.0618,-1.01917 0.065,-2.04056 0.0666,-3.06121 -6.1e-4,-0.87039 -0.003,-1.74077 -0.004,-2.61116 7.9e-4,-0.7031 -0.34315,-0.60374 1.02512,-0.90802 0.0886,-0.0197 -0.0697,0.16865 -0.0887,0.25738 -0.0709,0.33097 -0.10204,0.82841 -0.13031,1.14948 -0.13914,1.87894 -0.12466,3.75764 -0.009,5.63626 0.16875,1.91488 0.17722,3.83973 0.33001,5.75493 0.0979,1.44429 0.51216,2.84508 0.97845,4.20845 0,0 -1.09215,0.60245 -1.09215,0.60245 l 0,0 c -0.46684,-1.37454 -0.88038,-2.78834 -0.97898,-4.24293 -0.15909,-1.9165 -0.1485,-3.8445 -0.3232,-5.76097 -0.12152,-1.88046 -0.13804,-3.75983 -0.0186,-5.64197 0.005,-0.0752 0.0942,-1.41865 0.15756,-1.46594 1.13795,-0.84892 1.27569,-0.99595 1.27046,-0.16026 0.001,0.87081 0.003,1.74162 0.003,2.61244 -0.003,1.02423 -0.009,2.04906 -0.0683,3.07188 -0.0827,1.18835 -0.24384,2.36926 -0.50282,3.53288 -0.20538,1.24367 -0.58129,2.42954 -1.36814,3.43848 -0.91193,1.20893 -1.85983,2.1546 -3.47179,2.38248 -0.81184,-0.0153 -1.55629,-0.26012 -1.97944,-1.0029 -0.38391,-0.9297 -0.54376,-1.9286 -0.40239,-2.93107 0.14345,-1.22479 0.35341,-2.44155 0.26797,-3.68139 0.002,-1.49259 0.002,-2.98525 -0.0131,-4.47778 0,0 1.12676,-0.57411 1.12676,-0.57411 z"
       inkscape:connector-curvature="0" />
    <path
       style="fill:#000000;fill-opacity:1;stroke:#ff0000;stroke-opacity:1"
       id="path3845"
       d="m 496.39897,648.93293 c -0.16607,-1.08087 -0.2627,-2.17003 -0.32589,-3.2612 -0.11131,-1.10717 -0.0325,-1.81794 0.6741,-2.70243 1.02844,-0.83219 2.19541,-1.57716 3.49271,-1.89479 0.91671,-0.17576 1.83491,-0.26763 2.74035,-0.0151 1.19727,0.56706 1.21921,2.12348 1.33778,3.27847 0.17444,1.58379 -0.009,3.1625 -0.15661,4.73875 -0.10147,1.25632 -0.55996,2.4157 -0.96952,3.59183 -0.45405,1.02963 -0.59673,2.15257 -0.99383,3.19832 -0.26239,0.90784 -0.7922,1.66244 -1.27565,2.4578 -0.53051,0.86117 -1.01541,1.75106 -1.46792,2.65555 -0.31949,0.63969 -0.85543,1.25818 -0.94423,1.98739 0.007,0.0185 0.0389,0.0468 0.0211,0.0556 -1.40726,0.7009 -1.25145,0.77561 -0.97621,0.29834 0.1561,-0.27069 0.3177,-0.53608 0.46819,-0.81029 0.51146,-0.90552 1.43495,-1.4519 2.28617,-1.99966 1.17121,-0.66349 2.14,-1.49877 3.4525,-0.85024 0.68304,0.49026 1.00938,1.2901 1.6696,1.80114 0.89635,0.38093 1.51288,-0.23152 2.3089,-0.51495 0.16764,-0.0597 -0.31107,0.17292 -0.4666,0.25939 0.85326,-0.57524 1.63746,-1.24401 2.37525,-1.95939 0,0 1.1575,-0.47818 1.1575,-0.47818 l 0,0 c -0.73371,0.72856 -1.52855,1.3941 -2.37321,1.99127 -0.65107,0.3776 -2.27096,1.51712 -3.23536,1.55876 -0.34034,0.0147 -0.52268,-0.0798 -0.83339,-0.18657 -0.63669,-0.52276 -0.97884,-1.2945 -1.6537,-1.77612 -0.38185,-0.16875 -0.671,-0.25324 -1.09467,-0.17156 -0.48951,0.0944 -0.90954,0.37905 -0.80483,0.2819 0.19126,-0.17744 0.44459,-0.27315 0.66689,-0.40972 -0.84721,0.52936 -1.77305,1.06358 -2.30489,1.93631 -0.19554,0.38959 -1.28951,2.38279 -1.80004,1.53965 0.0542,-0.74718 0.59572,-1.3961 0.93848,-2.03574 0.44734,-0.90939 0.93697,-1.79972 1.46436,-2.66497 0.47241,-0.79631 1.02718,-1.53297 1.28491,-2.43888 0.41818,-1.03891 0.54208,-2.16575 0.99865,-3.19533 0.407,-1.17056 0.8805,-2.31811 0.98968,-3.56821 0.14814,-1.56958 0.35246,-3.14098 0.17091,-4.71883 -0.11139,-1.09769 -0.11273,-2.62458 -1.27501,-3.1399 -0.89529,-0.22019 -1.80554,-0.11965 -2.70242,0.0666 -0.44391,0.12072 -1.65853,0.74484 -0.15689,-0.14065 0.12836,-0.0757 -0.25325,0.15715 -0.38166,0.23273 -0.61176,0.36006 -0.24193,0.0959 -0.8041,0.54926 -0.73735,0.84778 -0.82127,1.51808 -0.71492,2.61777 0.0583,1.08556 0.14511,2.17099 0.33041,3.2433 0,0 -1.11691,0.59253 -1.11691,0.59253 z"
       inkscape:connector-curvature="0" />
    <path
       style="fill:#000000;fill-opacity:1;stroke:#ff0000;stroke-opacity:1"
       id="path3847"
       d="m 379.77721,472.47978 c 0.0338,-1.12287 0.0169,-2.23773 -0.10911,-3.35395 -0.14169,-1.15313 -0.23311,-2.31096 -0.28322,-3.47142 0.22038,-0.9877 0.47514,-1.98464 0.88343,-2.91297 0.5392,-1.21573 1.39683,-2.18833 2.41804,-3.01683 1.20693,-1.00921 2.56809,-1.78357 3.99955,-2.42411 1.09819,-0.4435 1.63476,-0.46095 2.4222,0.46232 0.54799,0.80973 0.67618,1.76731 0.75063,2.71821 0.0469,0.99617 0.0326,1.99427 0.026,2.99122 -0.0604,1.41913 0.1204,2.83001 0.23932,4.24147 0.10034,1.1559 0.14944,2.31503 0.17232,3.47476 0.008,0.47251 0.006,0.94509 0.0166,1.41756 0,0 -1.1328,0.57734 -1.1328,0.57734 l 0,0 c 0.009,-0.47438 0.004,-0.94883 -8.9e-4,-1.42323 -0.0181,-1.15956 -0.0589,-2.31886 -0.15417,-3.47498 -0.1159,-1.41327 -0.30787,-2.8244 -0.25593,-4.24522 0.003,-0.99336 0.0201,-1.98755 -0.0254,-2.98023 -0.0668,-0.92453 -0.17762,-1.86078 -0.71087,-2.64873 -0.76821,-0.87637 -1.3051,-0.75211 -2.32912,-0.33178 -0.30984,0.1387 -1.15295,0.67526 -0.92681,0.42209 0.14998,-0.1679 0.35682,-0.32633 0.58126,-0.34397 0.20064,-0.0158 -0.33697,0.22037 -0.50053,0.33763 -0.34427,0.24679 -0.66752,0.52205 -1.01434,0.76546 -1.02667,0.8064 -1.90066,1.756 -2.44124,2.9623 -0.41737,0.91172 -0.63394,1.89441 -0.90267,2.85802 0.0447,1.15879 0.12761,2.31567 0.27282,3.46661 0.12838,1.11766 0.14997,2.23217 0.13426,3.35699 0,0 -1.12934,0.57544 -1.12934,0.57544 z"
       inkscape:connector-curvature="0" />
    <path
       style="fill:#000000;fill-opacity:1;stroke:#ff0000;stroke-opacity:1"
       id="path3849"
       d="m 383.67429,466.09224 c 1.07566,0.008 2.15135,0.006 3.22703,0.005 0.76973,0.0238 1.52134,0.0153 2.27695,-0.13381 0,0 -1.00565,0.75945 -1.00565,0.75945 l 0,0 c -0.75754,0.13405 -1.51524,0.12471 -2.28321,0.10955 -1.08018,-8.4e-4 -2.16038,-0.003 -3.24055,0.005 0,0 1.02543,-0.74502 1.02543,-0.74502 z"
       inkscape:connector-curvature="0" />
    <path
       style="fill:#000000;fill-opacity:1;stroke:#ff0000;stroke-opacity:1"
       id="path3851"
       d="m 395.39079,464.73449 c -0.18177,0.99656 -0.47411,1.96563 -0.64459,2.96545 -0.0726,0.84281 -0.17807,1.66755 -0.35693,2.49406 -0.11444,0.65521 -0.3498,1.37433 0.12102,1.92833 0.0797,0.0482 0.15123,0.11368 0.23911,0.1445 0.43197,0.15151 1.29058,-0.35248 0.94274,-0.18267 -0.90661,0.4426 -1.01339,0.61939 -0.52561,0.10982 0.59632,-0.61981 1.08494,-1.3449 1.5248,-2.08263 0.44819,-0.69143 0.87735,-1.37873 1.42155,-1.99818 0.44564,-0.59117 0.84952,-1.22363 1.095,-1.92491 0.31775,-0.6372 0.48948,-1.30847 0.58187,-2.01031 0.0113,-0.13052 0.0248,-0.26088 0.034,-0.39156 0.0168,-0.23862 0.01,-0.87473 0.0366,-0.88729 1.24609,-0.5788 1.13788,-0.69777 1.13485,-0.0131 -0.01,1.27599 -0.0131,2.55202 -0.0126,3.82805 -0.0437,1.35285 -0.28711,2.67661 -0.53768,4.0017 -0.0311,0.19098 -0.0622,0.38196 -0.0934,0.57294 0,0 -1.12176,0.54901 -1.12176,0.54901 l 0,0 c 0.0311,-0.19212 0.0621,-0.38424 0.0932,-0.57636 0.24728,-1.32042 0.51086,-2.63408 0.55205,-3.98311 0.003,-1.27286 0.004,-2.54575 -0.005,-3.81859 -0.009,-0.75318 -0.0981,-0.45771 1.12573,-1.13344 0.052,-0.0287 -0.008,0.11847 -0.0106,0.17775 -0.0193,0.3721 -0.0283,0.7449 -0.0657,1.11587 -0.0845,0.7081 -0.23187,1.39621 -0.56987,2.0323 -0.23109,0.72147 -0.63811,1.35961 -1.07752,1.97213 -0.54466,0.6169 -0.98534,1.28393 -1.43222,1.9765 -0.43029,0.74675 -0.9229,1.47893 -1.5123,2.10637 -0.66309,0.75263 -1.9136,1.76176 -2.90319,1.06614 -0.48432,-0.60452 -0.30794,-1.31891 -0.17092,-2.03079 0.17825,-0.8268 0.30878,-1.6462 0.36575,-2.49194 0.16629,-0.99939 0.46453,-1.96607 0.63109,-2.96316 0,0 1.14023,-0.5529 1.14023,-0.5529 z"
       inkscape:connector-curvature="0" />
    <path
       style="fill:#000000;fill-opacity:1;stroke:#ff0000;stroke-opacity:1"
       id="path3853"
       d="m 408.02801,459.22065 c 0.23514,-0.8632 0.64032,-1.64317 1.17225,-2.35774 1.03864,-0.95865 2.34581,-1.62465 3.70201,-2.011 0.94569,-0.23892 1.9216,-0.2803 2.89182,-0.30147 0.80029,0.0412 1.33512,0.29268 1.65871,1.03483 0.30432,0.82835 0.0865,1.46474 -0.39,2.15934 -0.46284,0.75009 -1.12579,1.32789 -1.80579,1.87368 -0.48192,0.48088 -1.08834,0.79658 -1.6261,1.20532 -0.37935,0.29837 -0.89718,0.67736 -1.01511,1.17486 0.34639,0.31915 1.05517,0.23899 1.49952,0.25284 0.76302,-0.0211 1.52892,0.0595 2.24643,0.32782 0.73778,0.21731 1.0188,0.77566 1.18471,1.47499 0.13301,0.81321 0.1204,1.64109 0.12097,2.46254 -0.0138,0.82223 -0.0885,1.69396 -0.47718,2.43048 -0.58611,1.02397 -1.60842,1.63539 -2.73299,1.97998 -0.81403,0.18741 -1.65448,0.18571 -2.48518,0.19277 -0.88534,0.0446 -1.74464,-0.0569 -2.53847,-0.46213 -0.4924,-0.19713 -0.80663,-0.58827 -1.1517,-0.96623 0,0 1.07942,-0.65454 1.07942,-0.65454 l 0,0 c 0.33459,0.3685 0.64396,0.73913 1.12305,0.92894 0.7881,0.37942 1.63688,0.45504 2.50445,0.41364 0.82462,-0.01 1.66133,-0.0112 2.46384,-0.22527 0.57815,-0.20459 0.59595,-0.23957 -0.38411,0.33336 -0.10522,0.0615 0.20886,-0.12707 0.3038,-0.2035 0.21412,-0.17237 0.3229,-0.31752 0.48009,-0.54018 0.065,-0.0921 0.12348,-0.18867 0.18522,-0.28301 0.42977,-0.696 0.48634,-1.57147 0.50914,-2.37327 -4e-5,-0.81219 0.0132,-1.63029 -0.11119,-2.43521 -0.15299,-0.67154 -0.41343,-1.16704 -1.12047,-1.36659 -0.71647,-0.24444 -1.467,-0.31833 -2.22178,-0.29739 -0.52127,-0.0191 -1.29843,0.0651 -1.61981,-0.42837 0.0389,-0.52234 0.5967,-0.9689 0.9838,-1.26607 0.52283,-0.43314 1.15533,-0.71389 1.63041,-1.20781 0.68686,-0.52713 1.35677,-1.10075 1.82217,-1.84091 0.47536,-0.65381 0.73415,-1.23515 0.44142,-2.04104 -0.29906,-0.69882 -0.82999,-0.88839 -1.57211,-0.91285 -0.96312,0.0247 -1.93185,0.0726 -2.86739,0.32416 -0.17525,0.053 -0.35275,0.0989 -0.52574,0.15888 -0.74272,0.25739 -0.6715,0.34411 0.0547,-0.17167 0.25551,-0.18147 -0.54151,0.31829 -0.7921,0.50649 -0.10379,0.0779 -0.195,0.17138 -0.2925,0.25706 -0.54659,0.68842 -0.94545,1.45424 -1.18799,2.30137 0,0 -1.14023,0.5529 -1.14023,0.5529 z"
       inkscape:connector-curvature="0" />
    <path
       style="fill:#000000;fill-opacity:1;stroke:#ff8787;stroke-opacity:1"
       id="path3855"
       d="m 385.33276,561.36867 c 0.0196,-1.0997 0.20792,-2.18907 0.31416,-3.2831 0.0448,-1.13093 0.1701,-2.24976 0.31175,-3.37191 0.0477,-1.22189 0.47241,-2.35045 1.02246,-3.42676 0.56752,-0.9276 1.08375,-1.90476 1.86029,-2.67631 1.04082,-0.90255 2.16193,-1.24365 3.46785,-1.3225 0.8089,-0.0685 1.50534,-0.0576 1.97729,0.66672 0.47096,0.61019 0.78958,1.25652 0.96064,2.00656 0.17281,0.97687 0.1788,1.97163 0.18852,2.96043 -0.002,1.21698 -8.4e-4,2.43398 -0.004,3.65096 -2.5e-4,0.19024 -4.9e-4,0.38049 -7.4e-4,0.57073 0,0 -1.11345,0.56709 -1.11345,0.56709 l 0,0 c 4.1e-4,-0.19035 8.2e-4,-0.38069 0.001,-0.57103 0.002,-1.21608 0.0127,-2.43218 0.002,-3.64825 -0.01,-0.97984 -0.0147,-1.96582 -0.18027,-2.93453 -0.16639,-0.73697 -0.4812,-1.36582 -0.94521,-1.96365 -0.44547,-0.67586 -1.15842,-0.61224 -1.89877,-0.55876 -0.41524,0.0307 -0.82909,0.0603 -1.23298,0.17051 -0.51239,0.1398 -0.7834,0.35905 0.30604,-0.31173 0.12453,-0.0767 -0.24501,0.15975 -0.36751,0.23962 -0.80269,0.74146 -1.30577,1.72205 -1.88001,2.64059 -0.56625,1.05404 -0.99695,2.17957 -1.04556,3.38813 -0.13792,1.12122 -0.26968,2.23685 -0.3091,3.36685 -0.10611,1.08737 -0.3022,2.17185 -0.30522,3.2649 0,0 -1.12935,0.57544 -1.12935,0.57544 z"
       inkscape:connector-curvature="0" />
    <path
       style="fill:#000000;fill-opacity:1;stroke:#ff8787;stroke-opacity:1"
       id="path3861"
       d="m 388.36758,555.3474 c 0.96778,-0.102 1.88853,-0.36112 2.79146,-0.71232 0.56441,-0.19708 0.25416,-0.0691 0.76029,-0.3184 0.11063,-0.0545 0.43929,-0.22372 0.333,-0.16119 -1.4715,0.86575 -0.84211,0.46371 -0.52286,0.25437 0,0 1.17691,-0.45921 1.17691,-0.45921 l 0,0 c -0.86722,0.56397 -1.74792,1.13301 -2.73573,1.4595 -0.91088,0.346 -1.8464,0.57385 -2.81337,0.70219 0,0 1.0103,-0.76494 1.0103,-0.76494 z"
       inkscape:connector-curvature="0" />
    <path
       style="fill:#000000;fill-opacity:1;stroke:#ff8787;stroke-opacity:1"
       id="path3863"
       d="m 397.57322,547.6292 c -0.0116,1.07916 -0.009,2.15839 -0.007,3.23759 0.003,0.98742 0.002,1.97484 9.9e-4,2.96226 -9e-4,0.81277 -0.0828,1.6929 0.41624,2.38229 0.5814,0.43545 1.32257,0.61778 2.02586,0.75611 0.4381,0.0589 0.87174,0.17005 1.30655,0.0132 0.15624,-0.0563 0.59627,-0.28545 0.43636,-0.24058 -0.63502,0.1782 -0.93753,0.63452 -0.26241,-0.12863 0.54001,-0.88314 1.00868,-1.8192 1.41222,-2.77318 0.34765,-0.95175 0.35504,-1.98136 0.38431,-2.98236 0.007,-0.95062 -0.0201,-1.89209 0.12345,-2.83349 0.13752,-0.77365 0.37998,-0.87451 1.37314,-1.23003 0.18634,-0.0667 0.31288,0.9866 0.32787,1.08865 0.0774,1.42314 0.19389,2.83995 0.33486,4.25847 0.12511,1.20829 0.19501,2.42089 0.22916,3.63485 0,0 -1.11578,0.57214 -1.11578,0.57214 l 0,0 c -0.0283,-1.21345 -0.0887,-2.42607 -0.21066,-3.63411 -0.14107,-1.4145 -0.26526,-2.82669 -0.34642,-4.24557 -0.0241,-0.15971 -0.0419,-0.32048 -0.0723,-0.47911 -0.0219,-0.11437 -0.0438,-0.22981 -0.0843,-0.339 -0.0116,-0.0314 -0.0951,-0.0531 -0.0685,-0.0734 1.53942,-1.17228 0.8673,-0.70981 0.76126,-0.10593 -0.15049,0.93735 -0.13241,1.87344 -0.13496,2.82152 -0.0288,1.01186 -0.0297,2.05338 -0.35935,3.02129 -0.39743,0.96792 -0.89372,1.89953 -1.40388,2.81156 -0.95711,1.18424 -2.19158,1.86637 -3.66336,1.56275 -0.72788,-0.15285 -1.5023,-0.34458 -2.0817,-0.83295 -0.50508,-0.72235 -0.45771,-1.60648 -0.4442,-2.45564 -5.4e-4,-0.98776 -0.002,-1.97552 0.001,-2.96328 0.001,-1.07666 0.004,-2.15337 -0.007,-3.22999 0,0 1.12935,-0.57544 1.12935,-0.57544 z"
       inkscape:connector-curvature="0" />
    <path
       style="fill:#000000;fill-opacity:1;stroke:#ff8787;stroke-opacity:1"
       id="path3865"
       d="m 414.23989,543.78305 c -0.0336,1.0468 -0.21872,2.08332 -0.31512,3.12682 -0.085,0.97699 -0.10549,1.9577 -0.11604,2.9378 0.0175,0.81505 0.51818,1.082 1.23887,1.22704 0.91729,0.11217 1.84525,0.0845 2.76754,0.0818 1.25148,0.0623 2.48731,-0.13236 3.72571,-0.27741 0.84994,-0.0675 1.71499,-0.16186 2.50828,-0.49149 0,0 -0.9934,0.77914 -0.9934,0.77914 l 0,0 c -0.81043,0.2887 -1.66237,0.39875 -2.51756,0.45878 -1.2413,0.14429 -2.48107,0.32103 -3.73487,0.26674 -0.9304,0.005 -1.86878,0.0354 -2.79209,-0.0981 -0.76364,-0.17951 -1.29467,-0.52149 -1.32269,-1.37725 0.011,-0.98419 0.0324,-1.96894 0.11775,-2.94999 0.0949,-1.03693 0.27744,-2.06901 0.30427,-3.10844 0,0 1.12935,-0.57543 1.12935,-0.57543 z"
       inkscape:connector-curvature="0" />
    <path
       style="fill:#000000;fill-opacity:1;stroke:#ff8787;stroke-opacity:1"
       id="path3867"
       d="m 420.98869,545.4675 c -0.36777,0.96837 -0.78707,1.91973 -1.12094,2.901 -0.22752,1.02508 -0.61721,1.99289 -0.98329,2.97177 -0.41495,0.81749 -0.60633,1.68807 -0.71564,2.5905 -0.0895,0.91531 -0.0916,1.8359 -0.0944,2.75464 0,0 -1.12014,0.57032 -1.12014,0.57032 l 0,0 c 0.003,-0.92337 0.005,-1.84841 0.0904,-2.76868 0.10364,-0.90928 0.27029,-1.7957 0.69943,-2.61593 0.36165,-0.98185 0.78335,-1.94027 0.99475,-2.97255 0.32268,-0.98474 0.75892,-1.92708 1.09356,-2.90797 0,0 1.15621,-0.5231 1.15621,-0.5231 z"
       inkscape:connector-curvature="0" />
    <path
       style="fill:#000000;fill-opacity:1;stroke:#0000ff;stroke-opacity:1"
       id="path3869"
       d="m 384.32536,621.56083 c -0.0137,1.24072 -0.0104,2.48154 -0.0119,3.72232 0.0667,1.25786 -0.38922,2.45236 -0.61156,3.67457 -0.1218,0.76405 -0.19175,1.5304 -0.16039,2.30298 0,0 -1.11242,0.57308 -1.11242,0.57308 l 0,0 c -0.038,-0.78133 0.0334,-1.55539 0.15154,-2.32905 0.20617,-1.22139 0.68691,-2.40484 0.6272,-3.65823 -0.001,-1.23675 0.002,-2.47355 -0.0119,-3.71024 0,0 1.12935,-0.57543 1.12935,-0.57543 z"
       inkscape:connector-curvature="0" />
    <path
       style="fill:#000000;fill-opacity:1;stroke:#0000ff;stroke-opacity:1"
       id="path3871"
       d="m 384.95634,620.36574 c 1.39081,-0.18806 2.79099,-0.27786 4.19207,-0.34236 1.71667,-0.0281 3.24812,-0.68703 4.77969,-1.38094 0.4424,-0.22149 1.0597,-0.51522 1.47922,-0.78487 0.12499,-0.0803 -0.49987,0.30788 -0.39886,0.19892 0.0253,-0.0273 1.08991,-0.75049 1.15222,-0.79295 0,0 1.15813,-0.45425 1.15813,-0.45425 l 0,0 c -1.40214,0.94763 -2.81484,1.88951 -4.35684,2.59984 -1.53886,0.69536 -3.08747,1.31958 -4.80826,1.34419 -1.41199,0.0691 -2.82039,0.17563 -4.2228,0.35744 0,0 1.02543,-0.74502 1.02543,-0.74502 z"
       inkscape:connector-curvature="0" />
    <path
       style="fill:#000000;fill-opacity:1;stroke:#0000ff;stroke-opacity:1"
       id="path3873"
       d="m 386.66574,625.9213 c 1.07566,0.008 2.15136,0.006 3.22703,0.005 0.80137,-7.8e-4 1.60273,-0.001 2.4041,-0.002 0,0 -1.01658,0.73859 -1.01658,0.73859 l 0,0 c -0.79981,-3.6e-4 -1.59962,-9.1e-4 -2.39943,-0.002 -1.08018,-8.4e-4 -2.16038,-0.003 -3.24055,0.005 0,0 1.02543,-0.74501 1.02543,-0.74501 z"
       inkscape:connector-curvature="0" />
    <path
       style="fill:#000000;fill-opacity:1;stroke:#0000ff;stroke-opacity:1"
       id="path3875"
       d="m 385.48357,633.18797 c 1.55208,0.0643 3.09586,-0.0621 4.64107,-0.18866 1.38255,-0.12222 2.7673,-0.13441 4.13929,-0.35058 0.17012,-0.0271 0.34023,-0.0541 0.51035,-0.0812 0,0 -1.00181,0.75205 -1.00181,0.75205 l 0,0 c -0.16962,0.0265 -0.33923,0.0529 -0.50885,0.0794 -1.36916,0.2032 -2.75177,0.2068 -4.12934,0.3322 -1.55553,0.12488 -3.10929,0.24321 -4.67143,0.19839 0,0 1.02072,-0.74159 1.02072,-0.74159 z"
       inkscape:connector-curvature="0" />
    <path
       style="fill:#000000;fill-opacity:1;stroke:#0000ff;stroke-opacity:1"
       id="path3877"
       d="m 406.54628,620.33056 c 0.0411,1.81043 -0.42315,3.56924 -0.77205,5.33062 -0.20383,1.37521 -0.58302,2.71433 -0.79985,4.087 -0.0188,0.15551 -0.0375,0.31103 -0.0562,0.46654 0,0 -1.12505,0.55647 -1.12505,0.55647 l 0,0 c 0.0187,-0.15721 0.0373,-0.31443 0.056,-0.47165 0.21762,-1.37982 0.61631,-2.72064 0.82126,-4.10281 0.34628,-1.74738 0.83163,-3.49398 0.74922,-5.29206 0,0 1.12675,-0.57411 1.12675,-0.57411 z"
       inkscape:connector-curvature="0" />
    <path
       style="fill:#000000;fill-opacity:1;stroke:#0000ff;stroke-opacity:1"
       id="path3879"
       d="m 400.3909,619.08455 c 1.53569,0.0583 3.06298,-0.0412 4.58516,-0.23992 1.49323,-0.24062 2.99581,-0.38766 4.4797,-0.67909 1.14831,-0.25587 2.25406,-0.64416 3.34173,-1.08555 0.42999,-0.18212 0.88151,-0.29084 1.33532,-0.39172 0,0 -0.99987,0.76166 -0.99987,0.76166 l 0,0 c -0.44833,0.10717 -0.89404,0.22274 -1.31956,0.40447 -1.0901,0.43825 -2.20336,0.81335 -3.35317,1.06409 -1.4796,0.28516 -2.98022,0.41824 -4.46756,0.65999 -1.53618,0.1937 -3.0759,0.28789 -4.62483,0.24937 0,0 1.02308,-0.7433 1.02308,-0.7433 z"
       inkscape:connector-curvature="0" />
    <path
       style="fill:#00ff00;fill-opacity:1;stroke:none"
       id="path3885"
       d="m 293.21207,675.33116 c -0.35018,1.71651 -0.49648,3.46396 -0.59544,5.21009 -0.0806,1.78089 -0.0852,3.56396 -0.0881,5.3463 -0.1063,0.93472 -0.0384,0.47785 -0.2004,1.37107 0,0 -1.98812,0.96667 -1.98812,0.96667 l 0,0 c 0.17223,-0.8755 0.0962,-0.42948 0.22615,-1.33843 0.005,-1.78699 0.0147,-3.5745 0.0905,-5.36017 0.0885,-1.75081 0.24422,-3.49893 0.55559,-5.22584 0,0 1.99974,-0.96969 1.99974,-0.96969 z"
       inkscape:connector-curvature="0" />
    <path
       style="fill:#00ff00;fill-opacity:1;stroke:none"
       id="path3887"
       d="m 285.40491,679.21138 c 2.07966,0.26618 4.0644,0.99134 6.08286,1.53075 1.68748,0.48958 3.22959,1.20154 4.71231,2.13419 0.94014,0.42444 1.6406,1.14301 2.37598,1.83652 0,0 -1.88153,1.16004 -1.88153,1.16004 l 0,0 c -0.72208,-0.68679 -1.4216,-1.38016 -2.34377,-1.80457 -1.46843,-0.9087 -3.00295,-1.60132 -4.66435,-2.08863 -2.00779,-0.54733 -3.99561,-1.28059 -6.07991,-1.46168 0,0 1.79841,-1.30662 1.79841,-1.30662 z"
       inkscape:connector-curvature="0" />
    <path
       style="fill:#00ff00;fill-opacity:1;stroke:none"
       id="path3889"
       d="m 301.77388,676.74179 c 1.40436,-0.58827 2.89875,-0.87201 4.34219,-1.34567 1.28442,-0.27374 2.48019,-0.81117 3.7565,-1.11311 0.21473,-0.0367 0.42947,-0.0734 0.6442,-0.11012 0,0 -1.76549,1.33171 -1.76549,1.33171 l 0,0 c -0.2122,0.0407 -0.42441,0.0813 -0.63661,0.122 -1.26239,0.32685 -2.46844,0.83263 -3.7422,1.12223 -1.44552,0.46768 -2.95472,0.73428 -4.33661,1.38321 0,0 1.73802,-1.39025 1.73802,-1.39025 z"
       inkscape:connector-curvature="0" />
    <path
       style="fill:#00ff00;fill-opacity:1;stroke:none"
       id="path3891"
       d="m 313.13611,670.21748 c 1.4567,0.11259 2.49969,0.80076 2.60624,2.30687 -0.30918,1.40254 -1.36399,2.43481 -2.26124,3.49283 -0.16581,0.17466 -0.33163,0.34931 -0.49744,0.52397 0,0 -2.03815,0.84788 -2.03815,0.84788 l 0,0 c 0.16841,-0.16996 0.33682,-0.33992 0.50524,-0.50988 0.86518,-1.04432 1.89998,-2.0095 2.31879,-3.33976 -0.006,-1.42804 -1.1128,-1.96373 -2.43185,-2.01529 0,0 1.79841,-1.30662 1.79841,-1.30662 z"
       inkscape:connector-curvature="0" />
    <path
       style="fill:#00ff00;fill-opacity:1;stroke:none"
       id="path3897"
       d="m 432.9956,681.6808 c 1.35591,1.02659 2.27104,2.52992 3.40411,3.78716 1.33171,1.10248 2.65648,2.172 3.60387,3.63472 0.4239,0.89716 0.2082,0.4654 0.64412,1.29679 0,0 -1.918,1.09641 -1.918,1.09641 l 0,0 c -0.43192,-0.83292 -0.22157,-0.40603 -0.62949,-1.28144 -0.9385,-1.4535 -2.27526,-2.49438 -3.576,-3.61106 -1.10855,-1.24043 -2.02112,-2.7324 -3.38789,-3.69924 0,0 1.85928,-1.22334 1.85928,-1.22334 z"
       inkscape:connector-curvature="0" />
    <path
       style="fill:#00ff00;fill-opacity:1;stroke:none"
       id="path3899"
       d="m 440.22313,682.9876 c -0.19461,0.0793 -0.39493,0.14578 -0.58382,0.23787 -0.32069,0.15636 -3.88828,1.87911 -1.97171,1.09617 0.4343,-0.17741 0.80595,-0.50356 1.25666,-0.63376 0.24003,-0.0693 -0.40212,0.29665 -0.60318,0.44498 -1.0283,1.10383 -1.99279,2.27183 -2.96144,3.43007 -0.38328,0.49654 -0.62109,1.07761 -0.91267,1.62825 0,0 -2.02048,0.90601 -2.02048,0.90601 l 0,0 c 0.30879,-0.55564 0.53074,-1.14785 0.89947,-1.66908 0.95992,-1.17816 1.98106,-2.3064 2.94473,-3.48205 1.77332,-1.3004 3.68958,-2.43436 5.69046,-3.34871 0,0 -1.73802,1.39025 -1.73802,1.39025 z"
       inkscape:connector-curvature="0" />
    <path
       style="fill:#00ff00;fill-opacity:1;stroke:none"
       id="path3901"
       d="m 412.76903,672.79409 c 1.77301,1.16252 3.57398,2.28811 5.40042,3.36645 1.88576,1.21016 3.9791,2.02784 5.96878,3.03756 0.7738,0.43307 1.59663,0.7452 2.43253,1.03027 0,0 -1.82403,1.23369 -1.82403,1.23369 l 0,0 c -0.83636,-0.29969 -1.66003,-0.62526 -2.437,-1.06236 -1.99345,-1.0104 -4.08763,-1.83401 -5.97253,-3.05251 -1.83201,-1.09467 -3.64568,-2.22061 -5.44687,-3.36484 0,0 1.8787,-1.18826 1.8787,-1.18826 z"
       inkscape:connector-curvature="0" />
    <path
       style="fill:#00ff00;fill-opacity:1;stroke:none"
       id="path3907"
       d="m 416.11954,673.02308 c -1.53702,-0.0567 -3.09514,0.0878 -4.56204,0.56278 -0.17528,0.10859 -0.72211,0.38897 -0.52584,0.32576 0.50687,-0.16324 0.93851,-0.57612 1.46836,-0.6293 0.18219,-0.0183 -0.1675,0.32809 -0.21878,0.50387 -0.20706,0.70976 0.002,1.33637 0.20683,2.01499 0.43338,1.61997 1.42724,2.83877 2.67659,3.90377 0.15846,0.14982 0.31692,0.29965 0.47539,0.44947 0,0 -1.88239,1.16078 -1.88239,1.16078 l 0,0 c -0.15598,-0.14751 -0.31195,-0.29503 -0.46792,-0.44254 -1.26108,-1.10569 -2.27894,-2.36234 -2.73244,-4.01323 -0.84905,-2.65538 -0.0351,-3.28316 2.74829,-4.62351 1.50084,-0.4191 3.05582,-0.56918 4.61236,-0.51946 0,0 -1.79841,1.30662 -1.79841,1.30662 z"
       inkscape:connector-curvature="0" />
    <path
       style="fill:#00ff00;fill-opacity:1;stroke:none"
       id="path3917"
       d="m 356.55714,495.1645 c 1.61158,0.88692 3.09726,2.00479 4.52468,3.16072 1.11446,1.0727 2.43222,1.88993 3.70747,2.75321 0,0 -1.8608,1.18995 -1.8608,1.18995 l 0,0 c -1.28132,-0.86231 -2.58591,-1.70583 -3.7074,-2.7759 -1.42945,-1.15697 -2.91786,-2.27055 -4.54266,-3.13971 0,0 1.87871,-1.18827 1.87871,-1.18827 z"
       inkscape:connector-curvature="0" />
    <path
       style="fill:#00ff00;fill-opacity:1;stroke:none"
       id="path3919"
       d="m 362.6788,494.59841 c -1.25055,0.82109 -2.46686,1.70328 -3.59071,2.69206 -0.89281,0.89541 -1.5143,1.86178 -1.83986,3.08103 -0.25303,0.75623 -0.12513,0.38033 -0.38361,1.12772 0,0 -2.00578,0.9393 -2.00578,0.9393 l 0,0 c 0.25693,-0.74413 0.12566,-0.37361 0.39376,-1.11155 0.30157,-1.26694 0.89055,-2.25701 1.7901,-3.20166 1.09687,-1.01263 2.32424,-1.88844 3.57049,-2.70544 0,0 2.06561,-0.82146 2.06561,-0.82146 z"
       inkscape:connector-curvature="0" />
    <path
       style="fill:#00ff00;fill-opacity:1;stroke:none"
       id="path3921"
       d="m 362.24544,506.67572 c -0.0474,1.71517 0.0677,3.43471 -0.0954,5.14391 -0.20526,1.33441 -0.39692,2.66894 -0.52196,4.01342 0,0 -1.9732,0.98282 -1.9732,0.98282 l 0,0 c 0.1213,-1.34667 0.30671,-2.684 0.52606,-4.01823 0.18752,-1.69635 0.0643,-3.40831 0.0839,-5.11272 0,0 1.98066,-1.0092 1.98066,-1.0092 z"
       inkscape:connector-curvature="0" />
    <path
       style="fill:#00ff00;fill-opacity:1;stroke:none"
       id="path3923"
       d="m 357.15502,513.28547 c 0.81728,1.41204 1.84169,2.70122 2.82954,3.99947 0.64266,0.99216 1.45821,2.04854 2.75187,1.78407 0.17236,-0.0888 0.68746,-0.35893 0.5171,-0.26635 -0.43575,0.23677 -0.82379,0.61966 -1.31332,0.699 -0.26126,0.0423 0.38432,-0.36666 0.54765,-0.57491 0.49384,-0.62967 0.88641,-1.38799 1.27752,-2.0837 0.48663,-0.90672 0.97357,-1.79459 1.57751,-2.62887 0,0 2.02544,-0.87441 2.02544,-0.87441 l 0,0 c -0.62057,0.82071 -1.1145,1.6928 -1.59141,2.60358 -1.15352,2.10605 -2.24786,3.73308 -4.81985,4.45257 -1.34958,0.0717 -2.19364,-0.91584 -2.8678,-1.98531 -0.98819,-1.31707 -2.01212,-2.61746 -2.86835,-4.0239 0,0 1.9341,-1.10124 1.9341,-1.10124 z"
       inkscape:connector-curvature="0" />
    <path
       style="fill:#67ff67;fill-opacity:1;stroke:none"
       id="path3925"
       d="m 372.28676,541.52581 c 1.37258,0.64906 2.76141,1.29882 4.0309,2.13954 1.21089,0.65406 2.15084,1.65382 3.15824,2.56522 0,0 -1.88187,1.1652 -1.88187,1.1652 l 0,0 c -0.99249,-0.91171 -1.93614,-1.88643 -3.13334,-2.53969 -1.2717,-0.82911 -2.6533,-1.48211 -4.03322,-2.10693 0,0 1.85929,-1.22334 1.85929,-1.22334 z"
       inkscape:connector-curvature="0" />
    <path
       style="fill:#67ff67;fill-opacity:1;stroke:none"
       id="path3927"
       d="m 380.75211,540.30207 c -1.08462,0.82792 -2.21638,1.59496 -3.31343,2.41011 -1.12593,0.88832 -2.40119,1.51574 -3.66055,2.20326 -0.4458,0.24337 1.76648,-1.00348 1.32471,-0.75286 -2.6501,1.5034 -1.58499,1.03071 -3.04334,1.63999 -0.60162,0.43274 -2.6649,1.2638 0.40349,-0.21885 0.32443,-0.15677 -0.58977,0.4153 -0.86811,0.64412 0,0 -2.05521,0.8339 -2.05521,0.8339 l 0,0 c 1.23708,-1.12347 2.79011,-1.84311 4.25487,-2.63185 0.19183,-0.0867 0.7482,-0.38042 0.5755,-0.26005 -0.4227,0.29463 -1.78029,1.03815 -1.33071,0.78645 0.82709,-0.46306 1.62847,-0.97183 2.46339,-1.4206 0.43595,-0.23432 -0.84182,0.52074 -1.26542,0.7767 -0.19924,0.12039 0.4003,-0.23838 0.59233,-0.36998 0.19036,-0.13045 0.36918,-0.27697 0.55377,-0.41545 1.10103,-0.79651 2.18771,-1.6098 3.3114,-2.37273 0,0 2.05731,-0.85216 2.05731,-0.85216 z"
       inkscape:connector-curvature="0" />
    <path
       style="fill:#67ff67;fill-opacity:1;stroke:none"
       id="path3929"
       d="m 373.00614,536.01858 c -0.0774,-1.62383 0.0713,-3.21158 0.33896,-4.80941 0.20335,-1.41192 0.44288,-2.84755 0.30642,-4.27492 -0.13683,-0.78914 -0.0308,-0.41776 -0.30379,-1.1181 0,0 1.93567,-1.07917 1.93567,-1.07917 l 0,0 c 0.2937,0.7453 0.18142,0.35498 0.32818,1.17342 0.15516,1.44419 -0.0811,2.90012 -0.28492,4.33058 -0.27047,1.58491 -0.46297,3.15458 -0.33985,4.7684 0,0 -1.98067,1.0092 -1.98067,1.0092 z"
       inkscape:connector-curvature="0" />
    <path
       style="fill:#67ff67;fill-opacity:1;stroke:none"
       id="path3931"
       d="m 374.75617,522.31426 c -1.02208,0.87936 -2.04883,1.7575 -3.01228,2.70161 -0.12951,0.23951 -0.39686,0.44256 -0.47345,0.71523 0.64811,-0.3403 1.59765,-0.84994 -1.35897,0.71504 0.57177,-0.85538 1.05818,-1.67752 1.93942,-2.24144 1.77102,-1.08434 3.44803,-2.29253 5.56512,-1.80481 1.49315,0.30889 2.50092,1.36558 3.5048,2.42222 0.57832,0.72728 0.31587,0.34872 0.78926,1.13435 0,0 -1.91226,1.10863 -1.91226,1.10863 l 0,0 c -0.45404,-0.75613 -0.20105,-0.39049 -0.76198,-1.09484 -0.97788,-1.03483 -1.97076,-2.03488 -3.43606,-2.30555 -0.6105,-0.1064 -1.15556,-0.14758 -1.76513,0.0191 -0.79605,0.21765 -1.58106,0.73968 -1.25983,0.51728 0.42787,-0.29623 0.89683,-0.52819 1.34524,-0.79228 -0.92456,0.49462 -1.4735,1.27385 -1.94267,2.19837 -0.3452,0.20964 -3.91889,2.70182 -2.2764,0.25517 0.93817,-0.96128 1.97605,-1.82736 2.99788,-2.69589 0,0 2.05731,-0.85217 2.05731,-0.85217 z"
       inkscape:connector-curvature="0" />
    <path
       style="fill:#000000;fill-opacity:1;stroke:none"
       id="path3933"
       d="m 362.39556,623.78562 c 0.74403,0.008 1.48814,0.005 2.2322,0.004 0.51253,-7.4e-4 1.02506,-0.002 1.53759,-0.002 0.4154,-0.0176 0.83664,0.0346 1.24888,-0.0259 0.32055,-0.0622 0.64271,-0.14402 0.97069,-0.11673 0.38066,0.12525 0.35495,0.55011 0.30625,0.8756 -0.0986,0.42567 -0.17626,0.85425 -0.21934,1.28904 -0.0287,0.3942 -0.0481,0.79016 -0.0152,1.18433 0.0742,0.4126 0.22768,0.79741 0.39893,1.17719 0.10095,0.37368 0.37057,0.5863 0.64363,0.83054 0.22111,0.23536 0.55409,0.377 0.6924,0.67892 -0.001,0.0313 0.0131,0.067 -0.003,0.0939 -0.0273,0.0454 -0.0719,0.0802 -0.11767,0.10682 -0.64348,0.37437 -0.73142,0.3556 -1.34936,0.51257 -0.45384,0.13829 -0.9309,0.14547 -1.39437,0.22737 -0.39415,0.0974 -0.80074,0.11603 -1.19905,0.18513 -0.41552,0.0858 -0.8364,0.13424 -1.2594,0.16097 -0.37889,0.0194 -0.75839,0.0192 -1.13766,0.0197 -0.44859,0.0242 -0.59786,-0.10464 -0.72727,-0.52061 -0.10842,-0.41566 -0.02,-0.83677 0.0326,-1.25334 0.022,-0.40774 0.12009,-0.8035 0.18855,-1.20448 0.0936,-0.44135 0.0526,-0.85379 -0.0543,-1.28518 -0.10853,-0.44286 -0.21118,-0.88875 -0.34791,-1.32385 -0.14422,-0.30191 -0.27108,-0.60725 -0.3555,-0.93116 0,0 0.48088,-0.26048 0.48088,-0.26048 l 0,0 c 0.0821,0.32373 0.20826,0.62845 0.35266,0.92945 0.13688,0.43629 0.24036,0.8831 0.34828,1.32731 0.11081,0.43789 0.15971,0.8542 0.0669,1.30395 -0.067,0.40098 -0.16996,0.79546 -0.19087,1.20308 -0.0516,0.40912 -0.14353,0.82286 -0.041,1.23163 0.12259,0.40496 0.26481,0.48206 0.68937,0.46211 0.37841,-6.8e-4 0.75708,-9.6e-4 1.13502,-0.0221 0.42177,-0.0287 0.84091,-0.0806 1.2555,-0.16485 0.39914,-0.0638 0.80387,-0.0925 1.19868,-0.18492 0.46397,-0.0737 0.93792,-0.0931 1.39087,-0.2301 0.15491,-0.0381 0.31169,-0.0684 0.46616,-0.10828 0.0743,-0.0191 0.25321,-0.13525 0.22036,-0.066 -0.0486,0.10241 -0.19522,0.11759 -0.28032,0.19245 -0.0368,0.0323 0.0958,-0.0307 0.13282,-0.0627 0.0178,-0.0154 0.0123,-0.0453 0.0184,-0.068 -0.1223,-0.29659 -0.4713,-0.42807 -0.67744,-0.66024 -0.2788,-0.24776 -0.54856,-0.47348 -0.65344,-0.85117 -0.17634,-0.3844 -0.3261,-0.77663 -0.40616,-1.19399 -0.0407,-0.39656 -0.0181,-0.79554 0.009,-1.19281 0.0419,-0.43589 0.11714,-0.86604 0.21835,-1.2922 0.0486,-0.28959 0.0985,-0.70089 -0.26251,-0.79569 -0.32623,-0.0135 -0.64375,0.0685 -0.96342,0.12424 -0.41472,0.0447 -0.83421,0.006 -1.25066,0.0186 -0.51061,3.8e-4 -1.02122,-0.001 -1.53183,-0.002 -0.74775,-0.001 -1.49556,-0.004 -2.24328,0.004 0,0 0.44598,-0.32402 0.44598,-0.32402 z"
       inkscape:connector-curvature="0" />
    <path
       style="fill:#000000;fill-opacity:1;stroke:none"
       id="path3935"
       d="m 364.18054,625.1578 c 0.044,0.15943 0.077,0.32052 0.0964,0.4847 0.012,0.11069 0.0148,0.22205 0.0176,0.33325 0,0 -0.15949,0.0817 -0.15949,0.0817 l 0,0 c -0.002,-0.11076 -0.005,-0.22163 -0.0166,-0.33191 -0.0188,-0.16372 -0.0503,-0.32489 -0.0981,-0.48282 0,0 0.16015,-0.085 0.16015,-0.085 z"
       inkscape:connector-curvature="0" />
    <path
       style="fill:#000000;fill-opacity:1;stroke:none"
       id="path3937"
       d="m 364.54175,625.39679 c -0.001,0.1399 -9.8e-4,0.27981 -8.8e-4,0.41971 0.003,0.0669 -0.004,0.13445 1.5e-4,0.20127 6.9e-4,0.0109 0.006,0.0997 0.0213,0.0635 0,0 -0.14768,0.10848 -0.14768,0.10848 l 0,0 c -0.0641,-0.0381 -0.0251,-0.22557 -0.034,-0.29165 1e-4,-0.13961 4.8e-4,-0.27922 -8.8e-4,-0.41882 0,0 0.16193,-0.0825 0.16193,-0.0825 z"
       inkscape:connector-curvature="0" />
    <path
       style="fill:#000000;fill-opacity:1;stroke:none"
       id="path3939"
       d="m 364.67705,625.3857 c 0.043,0.10452 0.10106,0.20347 0.17211,0.29137 0.081,0.0787 0.18163,0.0975 0.28821,0.071 0.0168,-0.009 0.0673,-0.0351 0.0503,-0.0265 -0.035,0.0177 -0.066,0.0466 -0.10455,0.0539 -0.0199,0.004 0.0304,-0.027 0.0437,-0.0424 0.0382,-0.0441 0.0693,-0.0972 0.1046,-0.14388 0.0658,-0.0884 0.24972,-0.36832 0.32472,-0.1408 0.0285,0.16632 0.0258,0.33635 0.0272,0.5046 10e-5,0.0278 2.1e-4,0.0555 3.1e-4,0.0833 0,0 -0.15955,0.0813 -0.15955,0.0813 l 0,0 c 0,-0.0278 0,-0.0556 0,-0.0833 -9.3e-4,-0.16631 0.001,-0.33435 -0.0266,-0.49876 -0.0307,-0.0998 -0.0823,-0.0312 0.10108,-0.139 0.013,-0.008 -0.10797,0.0999 -0.10142,0.12141 -0.12581,0.16357 -0.17025,0.26117 -0.40355,0.33931 -0.11261,0.0206 -0.21727,-0.004 -0.29963,-0.0874 -0.0711,-0.0895 -0.1295,-0.18927 -0.17507,-0.29409 0,0 0.15812,-0.09 0.15812,-0.09 z"
       inkscape:connector-curvature="0" />
    <path
       style="fill:#000000;fill-opacity:1;stroke:none"
       id="path3941"
       d="m 366.01234,625.39679 c -0.003,0.13449 -0.006,0.26786 0.0161,0.40083 0.0142,0.10031 0.0438,0.19311 0.13335,0.247 0.10083,0.0392 0.20903,0.0493 0.31152,0.0137 -0.22728,0.13367 -0.0786,0.0423 -0.0362,-0.002 0.0403,-0.0417 0.0752,-0.0876 0.10885,-0.13456 0.0589,-0.0941 0.0936,-0.19808 0.0632,-0.30729 -0.005,-0.0138 -0.01,-0.0279 -0.0158,-0.0413 -0.006,-0.014 -0.0139,-0.0409 -0.0285,-0.0363 -0.005,0.002 -0.0103,0.0162 -0.006,0.0144 0.17706,-0.0668 0.1318,-0.12715 0.17731,-0.0298 0.0604,0.11576 0.0936,0.24276 0.15064,0.35995 0.0272,0.0539 0.0707,0.0956 0.11005,0.14038 0,0 -0.15455,0.0933 -0.15455,0.0933 l 0,0 c -0.0403,-0.0461 -0.0843,-0.0894 -0.11223,-0.14472 -0.0566,-0.11734 -0.0901,-0.24424 -0.15135,-0.35953 -0.008,-0.0151 -0.0325,-0.0315 -0.0228,-0.0453 0.11917,-0.16826 0.16265,-0.16718 0.21191,-0.0377 0.0333,0.1135 0.003,0.22203 -0.0569,0.32214 -0.10195,0.14907 -0.20833,0.2424 -0.38094,0.31865 -0.10711,0.0291 -0.21911,0.019 -0.32099,-0.0261 -0.0911,-0.0601 -0.12596,-0.15453 -0.14023,-0.26063 -0.0222,-0.13371 -0.0191,-0.26753 -0.0188,-0.4028 0,0 0.16193,-0.0825 0.16193,-0.0825 z"
       inkscape:connector-curvature="0" />
    <path
       style="fill:#000000;fill-opacity:1;stroke:none"
       id="path3943"
       d="m 361.87941,636.99996 c -0.0978,0.47991 -0.13956,0.9684 -0.16867,1.45652 -0.0253,0.50354 -0.0249,1.00785 -0.0269,1.51187 -0.0355,0.51362 0.0576,1.01703 0.12839,1.52286 0.0366,0.47157 0.10297,0.93703 0.17819,1.40378 0.0671,0.52466 0.1961,1.03782 0.26874,1.56196 0.0925,0.49902 0.007,0.98301 -0.11825,1.46627 -0.10821,0.4178 -0.25941,0.84772 -0.0467,1.25207 0.17696,0.33513 0.49214,0.43127 0.84184,0.49031 0.50146,0.0502 1.00659,0.0426 1.50994,0.0417 0.48112,0.006 0.95593,0.009 1.43089,-0.0707 0.56858,-0.0562 1.11264,-0.22583 1.66409,-0.36537 0.54296,-0.1417 1.10277,-0.17964 1.66099,-0.20271 0.4051,-0.0712 0.81478,-0.11843 1.19463,-0.28135 -0.36661,0.24426 1.02293,-0.4823 0.58363,-0.25418 -0.66436,0.34501 -0.34239,0.1938 -0.18786,-0.0734 0.13916,-0.35352 0.13,-0.7374 0.20834,-1.10583 0.0899,-0.37365 0.11837,-0.75671 0.13626,-1.13932 0.0147,-0.4214 0.0136,-0.84313 0.0136,-1.26472 0.001,-0.48514 -1.3e-4,-0.97028 -7.6e-4,-1.45541 -0.008,-0.44749 0.0198,-0.89604 -0.0241,-1.34182 -0.0996,-0.43872 -0.0778,-0.87608 -0.0392,-1.31921 0.0383,-0.40571 0.0504,-0.81309 0.0579,-1.22032 0.0166,-0.36847 0.0513,-0.72107 -0.29196,-0.93494 -0.4893,-0.151 -1.01398,-0.12886 -1.52093,-0.13303 -0.50597,-6.4e-4 -1.01192,0.005 -1.51787,0.007 -0.47407,0.002 -0.94815,0.002 -1.42223,0.002 -0.45925,-0.0322 -0.90495,0.0264 -1.35603,0.10116 -0.40963,0.0619 -0.8188,0.0744 -1.22173,0.17264 -0.37353,0.0972 -0.75861,0.12451 -1.14255,0.1422 -0.27945,0.0103 -0.55911,0.0113 -0.83871,0.0125 0,0 0.50754,-0.36915 0.50754,-0.36915 l 0,0 c 0.2792,-0.002 0.55847,-0.003 0.83746,-0.015 0.38248,-0.0203 0.76499,-0.0536 1.13663,-0.15207 0.40331,-0.092 0.81511,-0.0989 1.22262,-0.16794 0.45235,-0.0743 0.90133,-0.11945 1.36098,-0.0921 0.4743,-1.1e-4 0.9486,-9.7e-4 1.42289,-0.003 0.50503,-0.002 1.01007,-0.007 1.51511,-0.004 0.51619,0.006 1.05653,-0.0222 1.54799,0.15812 0.34956,0.24286 0.34493,0.59371 0.3206,0.99137 -0.007,0.40839 -0.0176,0.817 -0.0552,1.22393 -0.0391,0.43983 -0.0729,0.87397 0.0314,1.30955 0.051,0.44719 0.0192,0.89795 0.0275,1.34747 -2e-5,0.48497 -2.1e-4,0.96994 0.002,1.45491 1.1e-4,0.42234 0.001,0.84481 -0.0118,1.26699 -0.0163,0.3853 -0.0413,0.77166 -0.13031,1.14827 -0.083,0.37319 -0.0788,0.75754 -0.20068,1.12167 -0.27916,0.55741 -0.92367,0.74241 -1.46328,0.9737 -0.3856,0.1494 -0.79764,0.2045 -1.2056,0.26259 -0.55525,0.0246 -1.1112,0.0678 -1.65065,0.21102 -0.5534,0.14128 -1.10124,0.30469 -1.67161,0.3641 -0.47619,0.074 -0.95361,0.0642 -1.43474,0.0611 -0.50679,2.5e-4 -1.01586,0.01 -1.5202,-0.0482 -0.36565,-0.0701 -0.68906,-0.18934 -0.87311,-0.53829 -0.21972,-0.42239 -0.0919,-0.85734 0.0291,-1.29522 0.12689,-0.4759 0.21943,-0.95075 0.12862,-1.44399 -0.0699,-0.52426 -0.19736,-1.0371 -0.2675,-1.5609 -0.075,-0.46717 -0.14797,-0.93195 -0.17975,-1.40451 -0.0696,-0.5089 -0.16607,-1.0151 -0.13038,-1.53164 0,-0.50484 -6.9e-4,-1.01002 0.0239,-1.51439 0.0287,-0.48942 0.0715,-0.97841 0.15879,-1.46135 0,0 0.56889,-0.27586 0.56889,-0.27586 z"
       inkscape:connector-curvature="0" />
    <path
       style="fill:#000000;fill-opacity:1;stroke:none"
       id="path3945"
       d="m 366.35085,639.72423 c -0.38918,-0.0512 -0.73508,0.0552 -1.08246,0.21493 0.13398,-0.0729 0.25925,-0.16473 0.40195,-0.21856 0.049,-0.0185 -0.0796,0.0689 -0.11282,0.10949 -0.15111,0.18456 -0.18522,0.42232 -0.21914,0.64968 -0.0953,0.4644 0.18321,0.66706 0.52145,0.91081 0.31874,0.28323 0.69633,0.42345 1.10842,0.50036 0.26322,0.0161 0.54686,0.0963 0.80897,0.0258 0.052,-0.014 0.19667,-0.0881 0.14792,-0.0651 -0.14011,0.066 -0.28138,0.12946 -0.42206,0.19419 0.22054,-0.36416 0.34891,-0.77574 0.36864,-1.1999 0.0129,-0.40112 -0.0812,-0.73642 -0.34756,-1.03587 -0.24639,-0.20678 -0.56151,-0.22709 -0.8683,-0.25461 0,0 0.5104,-0.36347 0.5104,-0.36347 l 0,0 c 0.32238,0.0325 0.64644,0.0649 0.89759,0.29224 0.27144,0.31449 0.3782,0.66171 0.36757,1.07901 -0.0107,0.43816 -0.14692,0.85144 -0.3467,1.24037 -0.7891,0.52584 -0.76348,0.57697 -1.63148,0.44659 -0.4176,-0.0856 -0.79849,-0.23807 -1.12381,-0.52272 -0.35144,-0.25437 -0.64581,-0.48988 -0.55518,-0.96997 0.0956,-0.73334 0.2654,-0.83361 0.98738,-1.20959 0.35461,-0.15687 0.71724,-0.24192 1.10796,-0.18506 0,0 -0.51874,0.36146 -0.51874,0.36146 z"
       inkscape:connector-curvature="0" />
  </g>
</svg>
